<svg width="345" height="300" viewBox="0 0 345 300" fill="none" xmlns="http://www.w3.org/2000/svg">
<rect opacity="0.3" width="108.596" height="5.01211" transform="matrix(1 0 0 -1 0 196.308)" fill="#00B7EA" fill-opacity="0.8"/>
<rect opacity="0.3" width="108.596" height="16.707" transform="matrix(1 0 0 -1 0 218.862)" fill="#121220"/>
<rect opacity="0.3" width="108.596" height="5.01211" transform="matrix(1 0 0 -1 212.18 66.8281)" fill="#00B7EA" fill-opacity="0.8"/>
<rect opacity="0.3" width="108.596" height="16.707" transform="matrix(1 0 0 -1 212.18 89.3826)" fill="#121220"/>
<path d="M222.539 183.36C222.539 244.222 174.134 293.544 114.443 293.544C54.7527 293.544 6.34766 244.222 6.34766 183.36C6.34766 122.498 54.7527 73.1755 114.443 73.1755C174.134 73.1755 222.539 122.498 222.539 183.36Z" stroke="black" stroke-opacity="0.28"/>
<path d="M344.5 114.025C344.5 174.887 296.095 224.209 236.404 224.209C176.714 224.209 128.309 174.887 128.309 114.025C128.309 53.1634 176.714 3.84131 236.404 3.84131C296.095 3.84131 344.5 53.1634 344.5 114.025Z" stroke="black" stroke-opacity="0.28"/>
<path d="M311.986 154.261C311.776 153.543 311.71 152.792 311.792 152.049C311.73 151.308 311.817 150.562 312.047 149.855C312.27 150.567 312.339 151.317 312.25 152.058C312.316 152.802 312.226 153.553 311.986 154.261Z" fill="#00B7EA"/>
<path d="M311.501 163.055C311.299 161.58 311.407 160.08 311.818 158.649C312.021 160.124 311.913 161.625 311.501 163.055Z" fill="#00B7EA"/>
<path d="M310.452 171.805C310.324 171.071 310.345 170.319 310.514 169.593C310.54 168.847 310.714 168.113 311.025 167.435C311.163 168.171 311.142 168.928 310.963 169.655C310.939 170.399 310.766 171.13 310.452 171.805Z" fill="#00B7EA"/>
<path d="M308.91 180.511C308.826 179.768 308.892 179.016 309.104 178.299C309.172 177.558 309.391 176.838 309.748 176.185C309.832 176.924 309.766 177.674 309.554 178.388C309.487 179.132 309.268 179.855 308.91 180.511Z" fill="#00B7EA"/>
<path d="M306.867 189.05C306.925 187.568 307.295 186.115 307.951 184.785C307.893 186.267 307.524 187.72 306.867 189.05Z" fill="#00B7EA"/>
<path d="M304.311 197.483C304.309 196.737 304.462 195.999 304.76 195.315C304.913 194.587 305.213 193.897 305.641 193.288C305.642 194.034 305.489 194.772 305.192 195.456C305.044 196.186 304.744 196.877 304.311 197.483Z" fill="#00B7EA"/>
<path d="M301.262 205.748C301.309 205.006 301.507 204.28 301.843 203.616C302.035 202.894 302.377 202.222 302.848 201.642C302.799 202.388 302.601 203.116 302.266 203.783C302.069 204.5 301.727 205.169 301.262 205.748Z" fill="#00B7EA"/>
<path d="M297.729 213.82C297.819 213.08 298.059 212.367 298.433 211.723C298.678 211.018 299.058 210.368 299.553 209.811C299.466 210.554 299.226 211.271 298.848 211.917C298.608 212.62 298.227 213.268 297.729 213.82Z" fill="#00B7EA"/>
<path d="M293.719 221.671C293.858 220.94 294.14 220.242 294.547 219.618C295.12 218.543 295.666 217.715 295.781 217.777C295.649 218.511 295.367 219.21 294.952 219.83C294.388 220.905 293.877 221.733 293.719 221.671Z" fill="#00B7EA"/>
<path d="M289.26 229.267C289.438 228.543 289.762 227.862 290.211 227.267C290.837 226.227 291.436 225.434 291.551 225.505C291.371 226.228 291.047 226.909 290.599 227.505C289.965 228.545 289.366 229.338 289.26 229.267Z" fill="#00B7EA"/>
<path d="M284.361 236.59C284.588 235.878 284.95 235.217 285.428 234.642C286.115 233.647 286.758 232.88 286.864 232.968C286.646 233.679 286.286 234.339 285.806 234.907C285.11 235.911 284.467 236.66 284.361 236.59Z" fill="#00B7EA"/>
<path d="M279.047 243.613C279.304 242.913 279.703 242.274 280.219 241.736C280.968 240.775 281.655 240.061 281.752 240.141C281.849 240.22 281.329 241.022 280.58 242.018C279.831 243.013 279.144 243.692 279.047 243.613Z" fill="#00B7EA"/>
<path d="M273.329 250.31C273.232 250.222 273.805 249.429 274.607 248.547C275.409 247.666 276.14 246.961 276.237 247.041C276.334 247.12 275.761 247.922 274.95 248.847C274.14 249.772 273.417 250.389 273.329 250.31Z" fill="#00B7EA"/>
<path d="M267.221 256.655C267.133 256.566 267.75 255.773 268.605 254.892C269.459 254.011 270.226 253.403 270.323 253.491C270.42 253.579 269.794 254.372 268.931 255.254C268.067 256.135 267.309 256.743 267.221 256.655Z" fill="#00B7EA"/>
<path d="M260.764 262.638C260.676 262.541 261.345 261.809 262.244 260.999C263.143 260.188 263.954 259.598 264.006 259.695C264.059 259.791 263.434 260.523 262.526 261.334C261.618 262.144 260.843 262.735 260.764 262.638Z" fill="#00B7EA"/>
<path d="M253.959 268.233C253.88 268.127 254.585 267.44 255.537 266.682C256.071 266.163 256.703 265.756 257.396 265.484C257.484 265.581 256.77 266.277 255.818 267.035C255.287 267.557 254.655 267.965 253.959 268.233Z" fill="#00B7EA"/>
<path d="M246.841 273.415C246.77 273.309 247.519 272.657 248.506 271.961C249.068 271.471 249.725 271.102 250.436 270.877C250.515 270.982 249.766 271.635 248.77 272.331C248.208 272.821 247.551 273.19 246.841 273.415Z" fill="#00B7EA"/>
<path d="M239.438 278.173C239.368 278.067 240.152 277.459 241.2 276.816C241.794 276.365 242.471 276.035 243.192 275.847C243.262 275.961 242.478 276.56 241.429 277.204C240.84 277.662 240.162 277.992 239.438 278.173Z" fill="#00B7EA"/>
<path d="M231.763 282.491C231.701 282.376 232.521 281.821 233.587 281.239C234.199 280.805 234.896 280.505 235.631 280.358C235.113 280.892 234.492 281.318 233.807 281.609C233.194 282.041 232.498 282.341 231.763 282.491Z" fill="#00B7EA"/>
<path d="M223.842 286.341C224.39 285.839 225.035 285.452 225.736 285.205C226.378 284.819 227.092 284.57 227.834 284.473C227.284 284.981 226.636 285.371 225.93 285.619C225.292 286.002 224.581 286.248 223.842 286.341Z" fill="#00B7EA"/>
<path d="M215.709 289.725C216.286 289.25 216.955 288.899 217.674 288.694C218.337 288.352 219.062 288.148 219.806 288.095C219.226 288.565 218.558 288.915 217.841 289.126C217.178 289.467 216.453 289.671 215.709 289.725Z" fill="#00B7EA"/>
<path d="M207.389 292.616C207.995 292.189 208.682 291.89 209.407 291.734C210.087 291.424 210.826 291.262 211.574 291.259C210.29 292.004 208.865 292.475 207.389 292.642V292.616Z" fill="#00B7EA"/>
<path d="M198.922 295.012C199.548 294.61 200.25 294.34 200.984 294.219C201.685 293.958 202.431 293.842 203.178 293.876C202.547 294.275 201.843 294.545 201.107 294.669C200.409 294.929 199.666 295.045 198.922 295.012Z" fill="#00B7EA"/>
<path d="M190.312 296.898C190.966 296.538 191.685 296.313 192.427 296.237C193.139 296.015 193.889 295.94 194.63 296.017C193.978 296.382 193.259 296.609 192.515 296.686C191.803 296.904 191.054 296.976 190.312 296.898Z" fill="#00B7EA"/>
<path d="M181.613 298.273C182.275 297.948 182.993 297.756 183.728 297.709C184.453 297.535 185.204 297.505 185.94 297.62C184.547 298.137 183.06 298.351 181.578 298.246L181.613 298.273Z" fill="#00B7EA"/>
<path d="M172.848 299.136C173.538 298.855 174.278 298.714 175.024 298.722C175.757 298.586 176.51 298.604 177.236 298.775C176.545 299.056 175.805 299.194 175.059 299.18C174.327 299.322 173.574 299.307 172.848 299.136Z" fill="#00B7EA"/>
<path d="M164.043 299.471C164.746 299.223 165.494 299.127 166.237 299.189C166.978 299.096 167.73 299.153 168.449 299.356C167.742 299.604 166.992 299.703 166.246 299.647C165.507 299.736 164.758 299.676 164.043 299.471Z" fill="#00B7EA"/>
<path d="M155.23 299.33C155.948 299.121 156.702 299.067 157.442 299.171C158.186 299.122 158.933 299.224 159.636 299.471C158.174 299.73 156.673 299.682 155.23 299.33Z" fill="#00B7EA"/>
<path d="M146.449 298.651C147.179 298.506 147.931 298.506 148.661 298.651C149.408 298.645 150.149 298.792 150.838 299.083C150.105 299.234 149.349 299.234 148.617 299.083C147.872 299.091 147.134 298.944 146.449 298.651Z" fill="#00B7EA"/>
<path d="M137.715 297.471C139.196 297.38 140.679 297.603 142.068 298.123C141.332 298.244 140.579 298.211 139.856 298.026C139.112 297.988 138.384 297.799 137.715 297.471Z" fill="#00B7EA"/>
<path d="M129.098 295.77C129.84 295.698 130.589 295.776 131.301 295.999C132.043 296.077 132.761 296.311 133.407 296.686C131.925 296.689 130.459 296.389 129.098 295.805V295.77Z" fill="#00B7EA"/>
<path d="M120.539 293.558C122.021 293.646 123.469 294.046 124.786 294.73C124.041 294.758 123.298 294.635 122.601 294.369C121.866 294.242 121.164 293.966 120.539 293.558Z" fill="#00B7EA"/>
<path d="M112.152 290.853C112.898 290.863 113.633 291.028 114.311 291.338C115.037 291.513 115.722 291.827 116.329 292.263C115.584 292.252 114.849 292.087 114.17 291.778C113.443 291.605 112.758 291.291 112.152 290.853Z" fill="#00B7EA"/>
<path d="M103.945 287.646C104.688 287.705 105.41 287.915 106.069 288.262C106.787 288.472 107.453 288.83 108.025 289.311C106.563 289.048 105.173 288.481 103.945 287.646Z" fill="#00B7EA"/>
<path d="M95.9446 283.962C97.3857 284.318 98.7384 284.966 99.9187 285.866C99.1801 285.761 98.4699 285.509 97.8303 285.126C96.7288 284.597 95.8829 284.077 95.9446 283.962Z" fill="#00B7EA"/>
<path d="M88.1752 279.812C88.9057 279.967 89.5978 280.266 90.2107 280.693C90.8954 280.985 91.5132 281.414 92.0259 281.953C91.2939 281.803 90.6009 281.503 89.9904 281.072C88.9242 280.49 88.1135 279.926 88.1752 279.812Z" fill="#00B7EA"/>
<path d="M80.6328 275.212C81.3542 275.402 82.029 275.738 82.6155 276.199C83.6465 276.851 84.4219 277.459 84.3778 277.574C83.6543 277.376 82.9794 277.031 82.3952 276.56C81.373 275.935 80.6328 275.318 80.6328 275.212Z" fill="#00B7EA"/>
<path d="M73.4316 270.181C74.1352 270.414 74.7852 270.786 75.3438 271.273C76.3307 271.978 77.1061 272.639 77.0004 272.745C76.291 272.514 75.637 272.139 75.0794 271.643C74.0925 270.938 73.3523 270.286 73.4316 270.181Z" fill="#00B7EA"/>
<path d="M66.5339 264.735C67.2309 265.003 67.8641 265.415 68.3932 265.942C69.3361 266.708 70.0322 267.413 69.9617 267.51C69.266 267.239 68.6332 266.828 68.1024 266.303C67.1331 265.536 66.4282 264.832 66.5339 264.735Z" fill="#00B7EA"/>
<path d="M59.9126 258.937C60.5821 259.252 61.1814 259.698 61.675 260.249C62.5562 261.069 63.2259 261.809 63.1466 261.906C63.0673 262.003 62.2654 261.413 61.3842 260.593C60.503 259.774 59.8333 258.981 59.9126 258.937Z" fill="#00B7EA"/>
<path d="M53.6855 252.671C54.3381 253.031 54.9155 253.512 55.3862 254.09C56.2673 254.971 56.8489 255.738 56.752 255.852C56.6551 255.967 55.8708 255.315 55.0513 254.443C54.2318 253.57 53.5885 252.768 53.6855 252.671Z" fill="#00B7EA"/>
<path d="M47.8155 246.107C47.9213 246.018 48.6438 246.697 49.4369 247.613C49.9722 248.132 50.403 248.748 50.7058 249.429C50.6089 249.517 49.8863 248.838 49.0844 247.922C48.2825 247.005 47.7186 246.186 47.8155 246.107Z" fill="#00B7EA"/>
<path d="M42.3533 239.198C42.4591 239.128 43.1376 239.841 43.8778 240.811C44.3883 241.355 44.7839 241.996 45.0409 242.696C44.9352 242.767 44.2567 242.053 43.5165 241.084C42.7763 240.115 42.2476 239.277 42.3533 239.198Z" fill="#00B7EA"/>
<path d="M37.3047 231.99C37.4104 231.92 38.0449 232.677 38.7234 233.682C39.2037 234.252 39.5608 234.915 39.772 235.629C39.6751 235.709 39.0318 234.951 38.3445 233.938C37.8688 233.366 37.5149 232.703 37.3047 231.99Z" fill="#00B7EA"/>
<path d="M32.6758 224.491C32.7903 224.429 33.3807 225.223 34.0064 226.254C34.4316 226.857 34.7313 227.541 34.8875 228.263C34.7818 228.324 34.1914 227.531 33.5658 226.5C33.1359 225.898 32.8331 225.214 32.6758 224.491Z" fill="#00B7EA"/>
<path d="M28.5117 216.746C28.6263 216.684 29.1726 217.512 29.7278 218.587C30.1338 219.213 30.4095 219.914 30.5384 220.649C30.4239 220.711 29.8776 219.883 29.3224 218.799C28.9128 218.178 28.6368 217.479 28.5117 216.746Z" fill="#00B7EA"/>
<path d="M24.8008 208.753C25.6598 209.957 26.2599 211.325 26.5631 212.772C26.4486 212.833 25.9463 211.97 25.4529 210.859C25.0967 210.208 24.8749 209.492 24.8008 208.753Z" fill="#00B7EA"/>
<path d="M21.5938 200.558C22.0445 201.149 22.3739 201.822 22.5631 202.541C22.8934 203.209 23.0852 203.938 23.127 204.682C22.6655 204.096 22.3295 203.421 22.1401 202.699C21.8109 202.031 21.6248 201.302 21.5938 200.558Z" fill="#00B7EA"/>
<path d="M18.8362 192.187C19.2639 192.799 19.5636 193.492 19.7174 194.223C20.0104 194.91 20.1574 195.651 20.1492 196.399C19.7234 195.786 19.4238 195.094 19.268 194.364C18.9757 193.675 18.8287 192.935 18.8362 192.187Z" fill="#00B7EA"/>
<path d="M16.5964 183.675C16.9929 184.307 17.2511 185.015 17.3542 185.754C17.6038 186.457 17.7057 187.204 17.6538 187.948C17.2634 187.314 17.0084 186.606 16.9048 185.869C16.6556 185.165 16.5507 184.419 16.5964 183.675Z" fill="#00B7EA"/>
<path d="M14.8689 175.03C15.2225 175.69 15.4355 176.416 15.4945 177.163C15.701 177.878 15.761 178.627 15.6707 179.366C15.319 178.708 15.106 177.985 15.0451 177.242C14.8386 176.524 14.7787 175.772 14.8689 175.03Z" fill="#00B7EA"/>
<path d="M13.6593 166.307C13.9747 166.984 14.1457 167.719 14.1616 168.466C14.3104 169.195 14.3104 169.948 14.1616 170.677C13.6698 169.264 13.4835 167.762 13.6153 166.271L13.6593 166.307Z" fill="#00B7EA"/>
<path d="M12.954 157.53C13.2216 158.224 13.3475 158.964 13.3241 159.707C13.449 160.445 13.419 161.201 13.236 161.927C12.9677 161.231 12.8418 160.488 12.8659 159.742C12.7448 159.006 12.7748 158.254 12.954 157.53Z" fill="#00B7EA"/>
<path d="M12.7803 148.718C13.0041 149.43 13.0849 150.178 13.0182 150.921C13.1014 151.662 13.0324 152.411 12.8156 153.124C12.5859 152.414 12.499 151.665 12.56 150.921C12.4772 150.18 12.5523 149.429 12.7803 148.718Z" fill="#00B7EA"/>
<path d="M13.088 139.915C13.2739 140.637 13.3128 141.39 13.2025 142.127C13.2402 142.871 13.1232 143.616 12.8589 144.312C12.6737 143.59 12.6348 142.838 12.7443 142.101C12.7035 141.356 12.8206 140.611 13.088 139.915Z" fill="#00B7EA"/>
<path d="M13.9169 131.165C14.0728 131.894 14.0728 132.648 13.9169 133.377C13.9069 134.123 13.7481 134.86 13.4498 135.544C13.2979 134.059 13.46 132.557 13.9257 131.138L13.9169 131.165Z" fill="#00B7EA"/>
<path d="M15.2631 122.432C15.371 123.171 15.323 123.925 15.1221 124.644C15.0704 125.381 14.8727 126.1 14.5405 126.759C14.4326 126.02 14.4806 125.267 14.6815 124.547C14.7314 123.81 14.9292 123.091 15.2631 122.432Z" fill="#00B7EA"/>
<path d="M17.1338 113.814C17.1055 115.302 16.7663 116.766 16.1381 118.115C16.0796 117.369 16.1725 116.62 16.4112 115.912C16.5059 115.17 16.7518 114.457 17.1338 113.814Z" fill="#00B7EA"/>
<path d="M19.4945 105.329C19.3718 106.808 18.949 108.247 18.252 109.558C18.2316 108.813 18.3666 108.072 18.6486 107.382C18.7905 106.648 19.0782 105.95 19.4945 105.329Z" fill="#00B7EA"/>
<path d="M22.3564 97.0015C22.3323 97.7472 22.1522 98.4797 21.8277 99.1516C21.6414 99.872 21.315 100.549 20.8672 101.143C20.8913 100.397 21.0714 99.6648 21.3959 98.9929C21.5797 98.2716 21.9063 97.5944 22.3564 97.0015Z" fill="#00B7EA"/>
<path d="M25.7164 88.8682C25.6439 89.6099 25.4221 90.3292 25.0643 90.983C24.8338 91.6941 24.4655 92.3528 23.9805 92.9216C24.0538 92.1789 24.2787 91.4591 24.6414 90.8068C24.8614 90.093 25.2275 89.4328 25.7164 88.8682Z" fill="#00B7EA"/>
<path d="M29.5207 80.9376C29.1399 82.372 28.468 83.7128 27.5469 84.8765C27.6627 84.1395 27.9297 83.4345 28.3311 82.8057C28.9039 81.6954 29.4326 80.8583 29.5207 80.9376Z" fill="#00B7EA"/>
<path d="M33.8416 73.2272C33.6927 73.9542 33.3925 74.6418 32.9604 75.2451C32.3524 76.2937 31.7708 77.1044 31.6562 77.0075C31.8145 76.2808 32.1139 75.5922 32.5374 74.9808C33.1543 73.9586 33.7358 73.1567 33.8416 73.2272Z" fill="#00B7EA"/>
<path d="M38.5834 65.7987C38.3802 66.5165 38.0324 67.1852 37.5612 67.7637C36.8915 68.7771 36.2659 69.5261 36.1602 69.4732C36.3672 68.7569 36.7147 68.0889 37.1823 67.5082C37.852 66.4948 38.4777 65.7282 38.5834 65.7987Z" fill="#00B7EA"/>
<path d="M43.7423 58.661C43.5031 59.3671 43.1189 60.0154 42.6144 60.5644C41.883 61.5337 41.2133 62.265 41.1076 62.1945C41.0019 62.124 41.513 61.3134 42.2443 60.2912C42.9757 59.269 43.619 58.5817 43.7423 58.661Z" fill="#00B7EA"/>
<path d="M49.3211 51.8585C49.418 51.9466 48.854 52.7397 48.0786 53.6913C47.3031 54.643 46.5806 55.3127 46.4836 55.2334C46.3867 55.1541 46.9419 54.3522 47.7261 53.4005C48.5104 52.4489 49.2241 51.7615 49.3211 51.8585Z" fill="#00B7EA"/>
<path d="M55.2811 45.3642C55.378 45.4523 54.77 46.2454 53.9328 47.1265C53.0957 48.0077 52.3467 48.651 52.2586 48.5717C52.1705 48.4924 52.7697 47.6905 53.6068 46.8093C54.4439 45.9281 55.1929 45.2761 55.2811 45.3642Z" fill="#00B7EA"/>
<path d="M61.614 39.2398C61.7021 39.3367 61.0501 40.121 60.1689 40.914C59.2877 41.7071 58.4946 42.3416 58.4065 42.2534C58.3184 42.1653 58.9617 41.4163 59.8516 40.5792C60.7416 39.7421 61.5259 39.1428 61.614 39.2398Z" fill="#00B7EA"/>
<path d="M68.2923 33.5034C68.3716 33.6003 67.6755 34.3141 66.7502 35.0896C66.2254 35.6202 65.599 36.0398 64.9086 36.3232C64.8293 36.2263 65.5166 35.5125 66.4506 34.7371C66.9726 34.203 67.5997 33.7829 68.2923 33.5034Z" fill="#00B7EA"/>
<path d="M75.2933 28.1633C75.3727 28.2691 74.6413 28.93 73.6632 29.6525C73.1087 30.1496 72.462 30.5328 71.7598 30.7804C71.6805 30.6835 72.4119 30.0138 73.39 29.2824C73.9405 28.7821 74.5885 28.4011 75.2933 28.1633Z" fill="#00B7EA"/>
<path d="M82.598 23.2463C82.6685 23.3521 81.893 23.9777 80.8797 24.6386C80.2994 25.1049 79.6311 25.4496 78.9147 25.652C78.8442 25.5462 79.6108 24.9206 80.633 24.2509C81.21 23.7815 81.8796 23.4392 82.598 23.2463Z" fill="#00B7EA"/>
<path d="M90.1719 18.7612C90.2336 18.8758 89.4317 19.4486 88.4095 20.0566C87.8004 20.4842 87.111 20.784 86.3828 20.9378C86.8793 20.3942 87.4782 19.9541 88.1452 19.6424C88.7535 19.2135 89.4433 18.9136 90.1719 18.7612Z" fill="#00B7EA"/>
<path d="M98.0102 14.7344C97.4734 15.2498 96.838 15.6514 96.1421 15.9152C95.5105 16.3157 94.8022 16.5799 94.0625 16.6906C94.5993 16.1752 95.2347 15.7736 95.9306 15.5098C96.5629 15.1106 97.2709 14.8466 98.0102 14.7344Z" fill="#00B7EA"/>
<path d="M106.061 11.1743C105.496 11.662 104.836 12.0279 104.123 12.2494C103.471 12.6104 102.75 12.8296 102.008 12.8926C102.574 12.4083 103.234 12.0454 103.946 11.8264C104.601 11.4697 105.32 11.248 106.061 11.1743Z" fill="#00B7EA"/>
<path d="M114.31 8.09888C113.72 8.55447 113.042 8.88164 112.318 9.05936C111.643 9.37401 110.912 9.55078 110.168 9.57927C110.759 9.1277 111.437 8.80365 112.159 8.62759C112.833 8.30877 113.565 8.12895 114.31 8.09888Z" fill="#00B7EA"/>
<path d="M122.737 5.52588C122.116 5.93855 121.418 6.22039 120.684 6.35419C119.994 6.63611 119.253 6.77115 118.508 6.75072C119.816 6.04867 121.257 5.63125 122.737 5.52588Z" fill="#00B7EA"/>
<path d="M131.291 3.44629C129.945 4.06748 128.483 4.40063 127 4.4244C127.641 4.04105 128.356 3.79779 129.097 3.71065C129.803 3.47225 130.55 3.38225 131.291 3.44629Z" fill="#00B7EA"/>
<path d="M139.961 1.87786C138.58 2.42093 137.1 2.66713 135.617 2.60043C136.281 2.26117 137.006 2.0603 137.75 2.01003C138.471 1.81945 139.223 1.77452 139.961 1.87786Z" fill="#00B7EA"/>
<path d="M148.715 0.829024C147.294 1.28826 145.793 1.44436 144.309 1.28724C144.993 0.989471 145.73 0.833585 146.476 0.829024C147.214 0.669297 147.977 0.669297 148.715 0.829024Z" fill="#00B7EA"/>
<path d="M157.507 0.282817C156.808 0.548425 156.06 0.66256 155.313 0.617671C154.575 0.722012 153.824 0.680094 153.102 0.494306C153.801 0.228698 154.549 0.114563 155.296 0.159452C156.034 0.0551114 156.785 0.0970288 157.507 0.282817Z" fill="#00B7EA"/>
<path d="M166.308 0.256315C165.595 0.47315 164.846 0.542113 164.105 0.458983C163.361 0.51998 162.613 0.433136 161.902 0.203446C163.359 -0.0846006 164.859 -0.0665978 166.308 0.256315Z" fill="#00B7EA"/>
<path d="M175.113 0.749851C173.639 0.948782 172.139 0.843818 170.707 0.441432C171.432 0.268472 172.184 0.241516 172.919 0.362128C173.669 0.33748 174.416 0.469532 175.113 0.749851Z" fill="#00B7EA"/>
<path d="M183.871 1.73673C183.134 1.86486 182.38 1.84689 181.65 1.68386C180.906 1.66028 180.175 1.48642 179.5 1.17277C180.992 1.04883 182.493 1.241 183.906 1.73673H183.871Z" fill="#00B7EA"/>
<path d="M192.541 3.24371C191.054 3.27349 189.578 2.99443 188.205 2.42421C188.947 2.33441 189.7 2.39739 190.417 2.60926C191.16 2.67561 191.883 2.89141 192.541 3.24371Z" fill="#00B7EA"/>
<path d="M201.125 5.26157C199.64 5.21269 198.183 4.84611 196.852 4.18652C198.335 4.24667 199.79 4.61267 201.125 5.26157Z" fill="#00B7EA"/>
<path d="M209.567 7.79933C208.087 7.65842 206.654 7.20489 205.363 6.46875C206.106 6.47433 206.839 6.62707 207.522 6.91815C208.258 7.0665 208.954 7.36662 209.567 7.79933Z" fill="#00B7EA"/>
<path d="M217.84 10.8129C217.095 10.7655 216.367 10.5708 215.698 10.2401C214.978 10.045 214.306 9.70297 213.725 9.2356C214.469 9.28299 215.197 9.47767 215.866 9.80836C216.586 10.0026 217.259 10.3447 217.84 10.8129Z" fill="#00B7EA"/>
<path d="M225.922 14.3201C225.183 14.2286 224.471 13.9921 223.824 13.624C223.117 13.3852 222.467 13.0044 221.912 12.5049C222.651 12.5926 223.365 12.8295 224.009 13.201C225.146 13.7033 226.027 14.2056 225.922 14.3201Z" fill="#00B7EA"/>
<path d="M233.79 18.2941C233.053 18.1658 232.351 17.8868 231.728 17.4746C230.653 16.9106 229.824 16.3643 229.886 16.2498C230.619 16.3804 231.318 16.6593 231.939 17.0693C232.631 17.3514 233.26 17.7677 233.79 18.2941Z" fill="#00B7EA"/>
<path d="M241.394 22.7266C240.669 22.558 239.988 22.2398 239.394 21.7925C238.354 21.1669 237.561 20.5677 237.631 20.4531C238.356 20.6328 239.039 20.9531 239.64 21.396C240.671 22.0216 241.464 22.6208 241.394 22.7266Z" fill="#00B7EA"/>
<path d="M248.736 27.6083C248.023 27.387 247.362 27.0277 246.788 26.5508C245.793 25.8635 245.026 25.2202 245.105 25.1145C245.819 25.3314 246.482 25.6912 247.053 26.1719C248.057 26.8593 248.806 27.5025 248.736 27.6083Z" fill="#00B7EA"/>
<path d="M255.776 32.9042C255.076 32.6417 254.435 32.2434 253.89 31.7322C252.938 30.9832 252.216 30.3047 252.295 30.199C252.994 30.4586 253.632 30.8573 254.172 31.371C255.106 32.12 255.855 32.7985 255.776 32.9042Z" fill="#00B7EA"/>
<path d="M262.491 38.6407C262.403 38.7377 261.61 38.1649 260.685 37.363C259.759 36.5611 259.09 35.8386 259.178 35.7417C259.266 35.6447 260.059 36.2175 260.984 37.0194C261.909 37.8212 262.579 38.5086 262.491 38.6407Z" fill="#00B7EA"/>
<path d="M268.862 44.677C268.774 44.7651 267.981 44.1483 267.099 43.3023C266.524 42.8288 266.045 42.2483 265.689 41.5929C265.778 41.5047 266.571 42.1216 267.452 42.9763C268.333 43.8311 268.95 44.5889 268.862 44.677Z" fill="#00B7EA"/>
<path d="M274.861 51.1184C274.764 51.2066 274.033 50.5457 273.213 49.6469C272.394 48.7481 271.812 47.9462 271.909 47.8845C272.006 47.8228 272.737 48.4573 273.557 49.3649C274.376 50.2725 274.958 51.0391 274.861 51.1184Z" fill="#00B7EA"/>
<path d="M280.484 57.9033C280.378 57.9826 279.682 57.2776 278.924 56.3348C278.401 55.8025 277.99 55.1701 277.717 54.4755C277.823 54.3873 278.519 55.0923 279.276 56.044C279.8 56.5763 280.21 57.2086 280.484 57.9033Z" fill="#00B7EA"/>
<path d="M285.69 65.0056C285.584 65.0761 284.924 64.3271 284.227 63.3401C283.736 62.7808 283.365 62.1271 283.135 61.4192C283.241 61.3398 283.893 62.08 284.598 63.0758C285.084 63.6416 285.455 64.2972 285.69 65.0056Z" fill="#00B7EA"/>
<path d="M290.468 72.3989C290.362 72.4605 289.754 71.6763 289.111 70.6365C288.655 70.0447 288.322 69.3676 288.133 68.645C288.239 68.5745 288.855 69.3588 289.499 70.4074C289.959 70.9953 290.289 71.6741 290.468 72.3989Z" fill="#00B7EA"/>
<path d="M294.811 80.0565C294.697 80.1182 294.133 79.2987 293.551 78.2324C293.123 77.6201 292.824 76.9278 292.67 76.1969C292.784 76.1352 293.348 76.9459 293.93 78.0121C294.36 78.6264 294.66 79.3221 294.811 80.0565Z" fill="#00B7EA"/>
<path d="M298.689 87.9869C298.183 87.4392 297.794 86.7948 297.544 86.0923C297.158 85.4544 296.909 84.7432 296.812 84.0039C297.318 84.5515 297.708 85.196 297.958 85.8985C298.346 86.5352 298.596 87.2469 298.689 87.9869Z" fill="#00B7EA"/>
<path d="M302.1 96.0765C301.625 95.5023 301.274 94.8363 301.069 94.1202C300.718 93.4637 300.51 92.7397 300.461 91.9966C300.932 92.5732 301.282 93.2384 301.492 93.9528C301.842 94.61 302.049 95.3337 302.1 96.0765Z" fill="#00B7EA"/>
<path d="M305.015 104.386C304.592 103.781 304.293 103.098 304.134 102.377C303.83 101.694 303.668 100.956 303.658 100.209C304.08 100.818 304.38 101.503 304.539 102.227C304.848 102.905 305.011 103.641 305.015 104.386Z" fill="#00B7EA"/>
<path d="M307.439 112.854C306.766 111.533 306.376 110.087 306.293 108.607C306.965 109.928 307.355 111.374 307.439 112.854Z" fill="#00B7EA"/>
<path d="M309.36 121.472C308.776 120.108 308.476 118.638 308.479 117.154C308.849 117.805 309.08 118.525 309.157 119.269C309.374 119.982 309.443 120.732 309.36 121.472Z" fill="#00B7EA"/>
<path d="M310.769 130.152C310.437 129.482 310.251 128.749 310.223 128.002C310.044 127.278 310.011 126.526 310.126 125.79C310.643 127.198 310.862 128.698 310.769 130.196V130.152Z" fill="#00B7EA"/>
<path d="M311.661 138.911C311.369 138.226 311.225 137.487 311.238 136.743C311.09 136.01 311.09 135.255 311.238 134.522C311.529 135.21 311.673 135.952 311.661 136.699C311.809 137.429 311.809 138.181 311.661 138.911Z" fill="#00B7EA"/>
<path d="M312.039 147.714C311.787 147.011 311.688 146.263 311.748 145.52C311.654 144.782 311.708 144.033 311.907 143.317C312.16 144.019 312.263 144.766 312.206 145.511C312.3 146.249 312.243 146.998 312.039 147.714Z" fill="#00B7EA"/>
<path d="M300.16 155.97C300.239 154.393 300.284 152.833 300.292 151.265C300.301 149.696 300.292 147.969 300.292 146.33C300.292 147.969 300.336 149.617 300.292 151.265C300.248 152.913 300.239 154.393 300.16 155.97Z" fill="#263238"/>
<path d="M284.998 173.338C284.117 170.113 284.275 166.729 283.852 163.425C283.623 161.663 283.086 159.715 281.597 158.728C280.61 158.076 279.35 157.962 278.275 157.459C274.406 155.697 274.124 149.864 270.555 147.564C269.389 146.925 268.132 146.468 266.828 146.207C261.796 144.859 256.756 142.33 254.121 137.844C253.24 136.39 252.676 134.743 251.531 133.5C250.385 132.258 248.402 131.5 246.966 132.399C247.742 134.716 248.482 137.025 249.231 139.316C249.927 141.404 250.623 143.554 252.042 145.211C253.46 146.868 255.778 148.004 257.875 147.379C258.538 147.05 259.278 146.907 260.016 146.965C260.526 147.151 260.949 147.518 261.206 147.996C263.55 151.52 261.902 156.473 258.721 159.239C255.54 162.006 251.31 163.037 247.266 164.015C245.829 164.488 244.291 164.561 242.816 164.227C240.216 163.346 239.212 160.226 238.806 157.495C237.925 151.459 237.925 145.052 235.088 139.651C234.163 137.95 232.938 136.337 232.506 134.443C232.056 132.399 232.559 130.152 231.625 128.275C230.691 126.398 228.259 124.9 228.4 122.714C228.505 121.19 229.95 120.071 231.431 119.586C232.911 119.102 234.489 119.146 236.004 118.767C236.595 118.608 237.282 118.291 237.396 117.692C237.52 116.81 236.321 116.238 236.119 115.348C235.916 114.458 237 113.585 237.555 112.704C238.753 110.713 236.859 108.254 234.841 107.082C232.823 105.91 230.373 104.914 229.677 102.676C229.458 101.628 229.375 100.556 229.431 99.4864C229.316 96.7988 227.756 93.9966 225.183 93.1771C222.61 92.3576 219.315 94.2962 219.367 96.9926C219.367 98.473 220.328 99.7596 220.724 101.178C221.121 102.597 220.672 104.571 219.226 104.8C216.856 105.161 215.279 100.702 213.173 101.848C213.56 104.624 213.939 107.391 214.327 110.175C211.128 111.259 207.956 107.999 207.137 104.703C206.317 101.407 206.775 97.8826 205.691 94.6839C204.608 91.4852 200.854 88.6478 197.955 90.3926C197.276 94.2169 202.123 96.508 203.92 99.9358C205.216 102.421 204.449 106.034 201.85 107.117C199.25 108.201 195.84 105.17 197.126 102.712C197.585 101.83 198.448 101.205 198.677 100.244C198.942 99.0458 198.06 97.9267 197.25 97.0191C195.981 95.5739 194.703 94.1552 193.434 92.7365C192.667 91.7596 191.711 90.9474 190.623 90.3485C187.768 89.0532 184.455 91.0358 182.481 93.4679C180.507 95.9 179.177 98.9224 176.674 100.835C173.07 103.619 167.104 102.958 164.655 99.1339C162.205 95.3096 164.655 89.1853 169.14 88.5597C170.849 88.3394 172.911 88.6831 173.986 87.3613C175.872 85.0085 172.021 81.1049 173.89 78.7257C175.326 76.9017 178.216 78.2499 180.516 77.8974C182.816 77.5449 184.34 75.5182 185.918 73.8087C187.495 72.0992 189.742 70.5043 191.919 71.3238C191.807 69.9754 192.085 68.6234 192.72 67.4289C193.478 66.301 195.241 65.7635 196.201 66.6975C194.844 68.3542 195.796 71.1035 197.585 72.249C199.373 73.3945 201.656 73.5443 203.806 73.6148C205.956 73.6853 208.723 73.2712 209.207 71.174C209.366 70.4954 209.207 69.72 209.569 69.112C210.864 66.724 215.023 70.8744 217.112 69.112C218.301 68.2308 217.429 66.16 216.037 65.5873C214.644 65.0145 213.093 65.3317 211.631 65.1643C210.168 64.9969 208.476 63.9835 208.626 62.5207C208.776 61.058 210.538 60.2649 210.917 58.8638C211.551 56.4846 207.533 55.2598 205.806 57.0221C204.079 58.7845 204.202 61.5514 204.282 64.0099C204.361 66.4684 204.202 69.297 202.184 70.7598C201.259 71.7996 199.382 70.9096 198.915 69.6055C198.448 68.3013 198.783 66.8562 198.871 65.4727C198.959 64.0892 198.58 62.4326 197.294 61.8775C196.413 61.4809 195.346 61.7893 194.377 61.7805C190.553 61.6924 188.641 56.4934 190.35 53.0392C192.06 49.585 195.778 47.7521 199.356 46.4303C201.999 45.4434 205.145 44.668 207.348 46.3246C208.379 47.1176 209.005 48.3072 209.992 49.1179C211.754 50.519 214.142 50.4485 216.319 50.801C219.757 51.4191 222.876 53.2059 225.148 55.859C226.029 56.8812 226.681 58.5025 225.774 59.4366C224.866 60.3707 222.399 60.3178 222.619 61.71C223.229 61.9784 223.889 62.1149 224.555 62.1106C225.221 62.1063 225.879 61.9613 226.486 61.6851C227.092 61.4089 227.633 61.0078 228.074 60.5079C228.515 60.0081 228.845 59.4208 229.043 58.7845C229.626 59.1621 230.101 59.6866 230.418 60.3052C230.735 60.9238 230.884 61.6149 230.849 62.3092C231.655 61.7497 232.569 61.3646 233.532 61.1784C234.495 60.9923 235.487 61.0092 236.443 61.2282C237.399 61.4471 238.3 61.8633 239.086 62.45C239.872 63.0368 240.527 63.7811 241.009 64.6356C241.361 65.6234 241.883 66.542 242.551 67.3496C243.336 68.0369 244.887 67.9753 245.142 66.9707C245.217 66.6489 245.217 66.3144 245.142 65.9926C244.834 64.4505 244.508 62.9261 244.199 61.4016C246.358 60.6174 248.491 62.6441 249.592 64.6532C253.672 72.1433 257.866 68.6097 264.828 70.7422C269.542 72.1697 271.216 75.5711 273.393 79.695C280.072 92.3929 289.721 103.408 295.563 116.511C296.151 117.88 296.709 119.26 297.238 120.652C297.158 120.309 297.097 119.974 297.009 119.63C295.179 111.405 292.577 103.371 289.236 95.6356C288.526 93.9966 287.791 92.3694 287.034 90.7539C286.558 89.7581 286.064 88.7448 285.571 87.7666C284.936 86.4801 284.258 85.2376 283.579 83.9952C283.042 82.9906 282.495 82.0037 281.931 81.0432C281.544 80.3647 281.138 79.695 280.724 79.0165C280.31 78.338 279.843 77.5009 279.332 76.743L277.825 74.3815C277.674 74.129 277.509 73.8849 277.332 73.6501C276.812 72.8306 276.248 72.0199 275.684 71.2092C275.648 71.115 275.591 71.0305 275.516 70.9625C275.375 70.7422 275.208 70.5219 275.041 70.3016C274.591 69.6143 274.089 68.9446 273.613 68.2837C272.82 67.1998 272.009 66.116 271.163 65.0674C270.485 64.1862 269.771 63.305 269.04 62.4238C268.308 61.5426 267.762 60.8729 267.101 60.1151C266.44 59.3573 265.815 58.6259 265.154 57.8945C264.352 57.0133 263.541 56.1321 262.695 55.1981C260.378 52.722 257.972 50.3428 255.47 48.0869C254.853 47.5142 254.245 46.959 253.619 46.4127C252.993 45.8664 252.35 45.3024 251.716 44.7649C251.081 44.2274 250.447 43.681 249.786 43.1611C249.125 42.6412 248.491 42.0949 247.838 41.5838C247.186 41.0727 246.79 40.7467 246.252 40.359C245.99 40.1366 245.716 39.9278 245.433 39.7333C244.305 38.8521 243.151 37.971 241.987 37.2043C241.406 36.7902 240.824 36.376 240.225 35.9795C239.485 35.4508 238.718 34.9485 237.952 34.4638C237.845 34.3755 237.73 34.2987 237.608 34.2347C236.921 33.7853 236.242 33.3536 235.528 32.8953C234.541 32.2961 233.546 31.6881 232.55 31.133C231.413 30.4633 230.276 29.7936 229.105 29.1591C227.933 28.5247 226.531 27.7492 225.218 27.0971C223.906 26.4451 222.575 25.7666 221.227 25.1321C219.879 24.4977 218.53 23.9073 217.164 23.3081C214.468 22.1449 211.71 21.061 208.925 20.0653L208.776 20.0036C207.709 19.6247 206.634 19.2546 205.559 18.9198C205.493 18.8833 205.422 18.8566 205.348 18.8405C204.89 18.6907 204.405 18.5321 203.92 18.3911C201.911 17.7478 199.884 17.175 197.822 16.6287C197.576 16.5516 197.326 16.4869 197.074 16.4348C196.483 16.2586 195.884 16.1264 195.267 15.9766C193.91 15.6418 192.535 15.3333 191.152 15.0514C189.769 14.7694 188.253 14.4522 186.799 14.1702C185.345 13.8882 183.741 13.6415 182.208 13.4212C178.149 12.8337 174.104 12.4313 170.074 12.214C169.114 12.1435 168.179 12.0994 167.228 12.073C166.276 12.0465 165.254 12.0025 164.267 11.9937C163.28 11.9849 162.284 11.9937 161.315 11.9937C160.346 11.9937 159.341 11.9937 158.345 12.0465C157.508 12.0465 156.645 12.0465 155.799 12.1435C153.708 12.2433 151.637 12.3843 149.587 12.5664C148.626 12.6457 147.666 12.7515 146.696 12.8748C145.727 12.9982 144.766 13.104 143.824 13.2361C142.229 13.4476 140.669 13.7032 139.109 13.9675L135.303 14.6725H135.214C133.919 14.928 132.668 15.21 131.39 15.5096H131.187C130.015 15.7828 128.852 16.0735 127.707 16.3908C126.262 16.7521 124.834 17.1662 123.433 17.5804C122.235 17.9329 121.054 18.2941 119.908 18.6819C118.763 19.0696 117.406 19.5102 116.172 19.9507L116.04 19.9948C114.85 20.4178 113.661 20.876 112.515 21.3342C111.37 21.7924 110.11 22.2859 108.902 22.8146C107.774 23.2904 106.673 23.7663 105.563 24.2686C105.14 24.4536 104.734 24.6563 104.303 24.8589C103.131 25.3965 101.985 25.9604 100.778 26.542C99.3503 27.2381 97.9668 27.9871 96.5833 28.7361C95.3585 29.397 94.1601 30.0844 92.9793 30.7717C86.1349 34.7504 79.646 39.3112 73.5844 44.4036C71.452 46.166 69.4253 47.9988 67.4162 49.8669C65.7331 51.4795 64.0853 53.1097 62.4903 54.8192C62.8428 54.8192 63.1953 54.8192 63.539 54.8192C65.504 54.9514 67.5483 55.3127 69.4253 54.7223C71.1876 54.1583 72.5094 52.8718 74.1308 52.0787C78.2723 49.9462 84.5023 50.3163 86.1677 45.9897C86.7317 44.527 86.5643 42.8263 87.3309 41.4604C88.7761 38.9138 92.4418 39.046 95.332 39.513C96.5657 39.6893 97.9756 40.0682 98.3898 41.2754C98.4876 41.701 98.4942 42.1424 98.4091 42.5707C98.3241 42.999 98.1493 43.4044 97.8963 43.7603C95.3588 48.5731 91.2422 52.3661 86.2382 54.502C82.1495 56.2643 76.9946 57.3129 75.338 61.4369C75.6464 62.9613 78.2988 63.1992 78.29 64.7766C78.29 66.0102 76.6245 66.4068 75.902 67.4201C74.8534 68.8741 76.4571 71.0682 78.2635 71.2445C80.07 71.4207 81.7442 70.3633 83.2422 69.3147C87.701 66.2305 92.3889 62.8996 94.5654 57.921C95.4466 55.8678 96.0634 53.3917 97.9932 52.2197C98.5809 51.9213 99.2297 51.7632 99.8887 51.7577C100.548 51.7522 101.199 51.8996 101.792 52.1881C102.384 52.4767 102.902 52.8987 103.304 53.4209C103.706 53.9432 103.981 54.5515 104.109 55.1981C105.959 54.4931 108.717 54.1671 109.343 56.0793C109.444 56.7676 109.471 57.4648 109.422 58.1589C109.581 61.0051 113.176 62.8027 113.167 65.6489C113.167 68.9269 108.761 69.9932 105.492 70.0549C102.514 70.0549 99.5353 70.1165 96.5481 70.1694C95.2489 70.0763 93.9463 70.2969 92.7502 70.8127C92.1588 71.0917 91.6808 71.5646 91.3954 72.1529C91.1101 72.7413 91.0347 73.4095 91.1817 74.0466C91.5341 74.6862 91.9664 75.2784 92.4682 75.809C94.539 78.5759 91.8249 83.2726 88.3971 82.8584C87.2252 82.7263 86.1413 82.1359 84.987 81.9244C81.5503 81.2723 78.3693 83.9159 76.2809 86.7269C74.1925 89.5378 72.4653 92.8334 69.4076 94.5077C64.473 97.2129 56.9125 95.3272 54.0134 100.156C52.8502 102.103 52.9647 104.5 52.9912 106.774C53.0176 109.047 52.8061 111.515 51.2288 113.162C49.6515 114.81 46.3118 114.696 45.6509 112.528C45.4611 111.557 45.5622 110.551 45.9417 109.638C46.9169 106.518 47.8833 103.396 48.8408 100.271C49.5546 97.9443 50.2595 95.336 49.1404 93.2212C47.5631 90.2163 43.1219 89.8374 40.2581 91.6527C37.3942 93.4679 35.8522 96.7283 34.6802 99.8829C33.799 102.227 32.7063 105.558 30.9704 108.122C30.0892 110.766 29.3667 113.409 28.6881 116.106C28.0096 118.802 27.4104 121.639 26.9258 124.468C27.3602 124.2 27.7781 123.905 28.1771 123.587C29.7368 122.38 33.3408 116.837 35.3851 120.106C35.6313 120.533 35.7301 121.029 35.6664 121.518C35.6027 122.007 35.38 122.461 35.0327 122.811C34.1515 123.692 32.5918 123.693 31.8604 124.644C30.9792 125.799 31.7282 127.499 32.7416 128.486C33.755 129.473 35.1384 130.249 35.7905 131.526C37.033 134.02 35.0327 137.236 36.2311 139.774C37.2621 141.951 40.0466 142.488 42.3994 143.087L43.2012 143.343C44.5583 138.681 47.3428 135.139 54.031 134.61C63.2658 133.87 73.9457 142.982 78.008 150.472C82.5285 158.825 83.6476 169.858 91.6928 174.898C97.4557 178.493 106.347 178.784 108.435 185.243C110.33 191.033 104.787 196.425 103.21 202.303C102.188 206.198 102.91 210.313 102.646 214.305C102.382 218.296 100.513 222.782 96.6626 223.918C94.5302 224.535 92.0188 224.059 90.1771 225.337C86.9079 227.646 88.4148 233.603 85.1896 235.911C84.0353 236.713 82.5461 236.854 81.2596 237.304C74.3246 239.63 73.1262 249.155 75.1706 256.178C75.2499 256.434 75.3292 256.663 75.3997 256.919C94.7292 272.63 117.955 282.81 142.608 286.377C164.935 289.639 187.723 287.345 208.952 279.697C213.418 278.084 217.798 276.24 222.073 274.172C228.663 271.01 234.987 267.321 240.983 263.14C245.132 260.263 249.116 257.153 252.914 253.826C255.558 251.517 258.14 249.085 260.624 246.582C261.885 245.287 263.136 243.992 264.325 242.635C273.2 232.933 280.62 221.995 286.355 210.163C289.863 202.974 292.723 195.487 294.902 187.79C295.784 184.776 296.533 181.718 297.202 178.617C296.384 179.262 295.448 179.739 294.445 180.022C293.443 180.304 292.394 180.387 291.36 180.264C288.179 179.683 285.879 176.546 284.998 173.338Z" fill="#00B7EA"/>
<path d="M212.324 225.725C208.156 230.386 206.606 236.748 204.773 242.723C202.94 248.697 200.367 254.971 195.08 258.32C189.793 261.668 181.201 260.179 179.43 254.178C178.461 250.927 179.703 247.428 179.43 244.045C179.051 239.639 176.134 235.858 175.112 231.558C174.231 227.884 174.795 224.051 175.218 220.297C177.562 199.818 175.667 177.806 163.939 160.852C162.502 158.764 160.819 156.693 158.493 155.706C157.093 155.134 155.557 154.981 154.071 155.264C152.586 155.547 151.214 156.255 150.122 157.301C148.8 158.614 147.945 160.412 146.403 161.46C143.046 163.742 138.146 161.055 136.666 157.275C135.186 153.494 136.084 149.247 136.992 145.29C138.132 140.379 139.263 135.471 140.385 130.566C140.975 128.002 141.671 125.279 143.663 123.516C146.491 121.058 150.853 121.56 154.14 119.763C158.449 117.419 159.771 111.938 162.828 108.096C165.886 104.254 173.826 103.593 174.284 108.475C184.911 92.2784 199.116 120.688 210.069 120.291C213.25 120.168 216.484 119.119 219.541 120.009C224.934 121.578 226.899 128.054 228.018 133.562C229.869 142.703 231.722 151.841 233.579 160.975C234.284 164.456 235.279 168.36 238.381 170.105C240.751 171.444 243.774 171.118 246.171 172.404C252.515 175.815 248.814 186.028 242.752 189.914C236.689 193.8 228.67 195.659 225.146 201.933C222.502 206.665 223.181 212.754 220.387 217.406C218.405 220.729 214.915 222.808 212.324 225.725Z" fill="#263238"/>
<path d="M236.917 235.066C234.67 235.066 232.229 233.594 230.352 234.819C229.251 235.533 228.828 236.898 228.264 238.079C227.526 239.759 226.201 241.113 224.537 241.886C223.701 242.253 222.777 242.37 221.876 242.223C220.975 242.076 220.137 241.671 219.461 241.058C218.824 240.408 218.467 239.535 218.467 238.626C218.467 237.716 218.824 236.843 219.461 236.193C220.146 235.73 220.855 235.304 221.585 234.916C224.898 232.581 223.638 227.17 226.334 224.209C227.929 222.447 230.273 220.799 231.991 219.054C233.313 217.706 233.895 216.569 235.983 216.464C245.121 215.997 246.469 235.145 236.917 235.066Z" fill="#263238"/>
<path d="M38.5793 168.562C38.7115 164.588 40.5708 160.87 41.2228 156.931C41.6634 154.208 41.8837 151.309 42.2362 148.559C39.914 148.119 37.6391 147.458 35.4423 146.586C34.9647 146.454 34.5474 146.162 34.2615 145.757C34.0926 145.279 34.0681 144.761 34.191 144.268C34.4642 141.175 31.7942 138.717 29.3621 136.796C28.1529 135.781 26.8418 134.896 25.4496 134.152C25.4496 134.478 25.3615 134.778 25.3351 135.104C23.716 149.979 24.5345 165.018 27.7584 179.63C29.1965 186.13 31.1199 192.513 33.5125 198.725C34.4906 201.369 35.6097 204.056 36.7993 206.656C38.2709 209.89 39.8394 213.071 41.5753 216.164C43.1703 219.133 44.9062 222.05 46.7743 224.879C49.3151 228.795 52.0563 232.577 54.9869 236.211C57.5835 239.454 60.3298 242.57 63.226 245.56C58.6703 224.482 54.608 203.052 44.3246 184.194C41.5929 179.277 38.403 174.184 38.5793 168.562Z" fill="#00B7EA"/>
<path d="M26.3523 127.64C26.2201 128.46 26.0703 129.27 25.947 130.09C26.0703 129.288 26.2201 128.521 26.3523 127.64Z" fill="#263238"/>
<g opacity="0.6">
<path d="M70.0547 252.213C71.0945 253.156 72.1431 254.081 73.2181 254.989C72.1255 254.081 71.0769 253.156 70.0547 252.213Z" fill="#263238"/>
</g>
<path d="M242.768 189.931C248.831 186.045 252.532 175.832 246.187 172.422C243.79 171.135 240.768 171.462 238.398 170.122C235.296 168.36 234.3 164.474 233.595 160.993C231.745 151.852 229.891 142.714 228.035 133.579C226.916 128.072 224.951 121.595 219.558 120.027C216.5 119.146 213.266 120.185 210.085 120.309C199.132 120.705 184.927 92.296 174.3 108.492C173.851 103.61 165.92 104.271 162.845 108.113C159.77 111.955 158.439 117.436 154.156 119.78C150.87 121.542 146.508 121.075 143.679 123.534C141.688 125.296 141.036 128.002 140.401 130.583C139.273 135.489 138.142 140.397 137.009 145.308C136.127 149.265 135.246 153.503 136.683 157.292C138.119 161.081 143.062 163.76 146.42 161.478C147.962 160.429 148.816 158.631 150.138 157.319C151.23 156.272 152.602 155.565 154.088 155.282C155.573 154.998 157.109 155.152 158.509 155.724C160.836 156.711 162.519 158.781 163.955 160.87C175.684 177.824 177.578 199.836 175.234 220.314C174.811 224.068 174.256 227.901 175.129 231.576C176.151 235.876 179.068 239.656 179.446 244.062C179.737 247.446 178.495 250.944 179.446 254.196C181.209 260.197 189.818 261.686 195.096 258.337C200.374 254.989 202.948 248.724 204.789 242.74C206.631 236.757 208.173 230.404 212.341 225.742C214.932 222.852 218.421 220.746 220.421 217.424C223.215 212.771 222.519 206.682 225.18 201.95C228.669 195.659 236.662 193.808 242.768 189.931Z" fill="#00B7EA"/>
<g opacity="0.6">
<path d="M26.8784 124.45C26.8255 124.706 26.7638 124.935 26.7286 125.199C26.7814 124.935 26.8784 124.706 26.8784 124.45Z" fill="#263238"/>
</g>
<path d="M43.2265 143.308L42.4246 143.052C40.0631 142.453 37.2785 141.916 36.2563 139.739C35.0579 137.201 37.0582 133.985 35.8158 131.491C35.1637 130.187 33.8155 129.464 32.7669 128.451C31.7183 127.438 30.9516 125.763 31.8857 124.609C32.6171 123.64 34.1591 123.64 35.0579 122.776C35.4066 122.427 35.6294 121.972 35.6916 121.482C35.7538 120.993 35.6518 120.496 35.4016 120.071C33.3661 116.802 29.762 122.344 28.2023 123.552C27.8033 123.87 27.3855 124.165 26.951 124.433C26.8982 124.688 26.8365 124.918 26.8012 125.182C26.6514 125.984 26.5369 126.812 26.4047 127.64C26.2725 128.469 26.1227 129.271 25.9994 130.09C25.9024 130.76 25.8319 131.429 25.7438 132.099C25.6557 132.769 25.5588 133.439 25.4883 134.099C26.8804 134.843 28.1916 135.729 29.4007 136.743C31.8328 138.664 34.5028 141.149 34.2296 144.215C34.1067 144.708 34.1312 145.226 34.3001 145.705C34.5861 146.109 35.0034 146.402 35.4809 146.533C37.6778 147.405 39.9527 148.066 42.2748 148.507" fill="#00B7EA"/>
<path d="M42.2225 148.56C41.87 151.309 41.6497 154.208 41.2091 156.931C40.5747 160.87 38.7154 164.588 38.5656 168.562C38.3893 174.184 41.5792 179.278 44.2845 184.212C54.5679 203.07 58.6301 224.5 63.1858 245.578C64.4107 246.882 65.662 248.124 66.9397 249.341C67.9442 250.322 68.9635 251.279 69.9974 252.213C71.0372 253.156 72.0858 254.081 73.1609 254.989C73.901 255.623 74.65 256.24 75.4255 256.857C75.355 256.601 75.2757 256.372 75.1964 256.117C73.152 249.067 74.3152 239.568 81.2854 237.242C82.6071 236.792 84.0611 236.651 85.2154 235.85C88.4758 233.541 86.9337 227.584 90.2029 225.275C92.0446 223.998 94.556 224.474 96.6884 223.857C100.539 222.72 102.372 218.261 102.672 214.243C102.971 210.225 102.213 206.136 103.236 202.241C104.813 196.364 110.356 190.971 108.461 185.182C106.329 178.722 97.4375 178.432 91.7186 174.836C83.6734 169.814 82.5543 158.764 78.0338 150.41C73.9715 142.946 63.2916 133.835 54.0568 134.549C47.3686 135.077 44.5841 138.62 43.227 143.281" fill="#00B7EA"/>
<path d="M40.274 91.6086C43.1378 89.7934 47.579 90.1723 49.1563 93.1771C50.2754 95.3272 49.5704 97.9355 48.8567 100.227C47.8933 103.346 46.9269 106.468 45.9576 109.594C45.5781 110.507 45.4769 111.513 45.6668 112.484C46.3277 114.652 49.7114 114.749 51.2447 113.118C52.778 111.488 53.0071 108.986 53.0071 106.73C53.0071 104.474 52.8661 102.059 54.0292 100.112C56.9283 95.2832 64.4889 97.1689 69.4235 94.4637C72.4812 92.7894 74.2171 89.4938 76.2967 86.6828C78.3763 83.8719 81.5838 81.2283 85.0028 81.8804C86.1572 82.0919 87.241 82.6823 88.413 82.8144C91.8408 83.1933 94.5813 78.4966 92.4841 75.765C91.9823 75.2344 91.55 74.6422 91.1976 74.0026C91.0505 73.3655 91.126 72.6972 91.4113 72.1089C91.6966 71.5206 92.1747 71.0477 92.7661 70.7687C93.9622 70.2529 95.2647 70.0323 96.564 70.1254C99.5512 70.0725 102.53 70.0461 105.508 70.0108C108.804 70.0108 113.165 68.9094 113.183 65.6049C113.183 62.7587 109.597 60.9611 109.438 58.1149C109.487 57.4208 109.46 56.7236 109.359 56.0353C108.733 54.1319 105.975 54.4579 104.125 55.1541C103.997 54.5075 103.722 53.8991 103.32 53.3769C102.918 52.8547 102.4 52.4327 101.807 52.1441C101.215 51.8555 100.564 51.7082 99.9046 51.7137C99.2455 51.7192 98.5967 51.8773 98.0091 52.1757C96.0793 53.3476 95.4977 55.8238 94.5813 57.8769C92.4048 62.8556 87.7169 66.1865 83.2581 69.2706C81.7601 70.2928 80.0858 71.3679 78.2794 71.2004C76.473 71.033 74.8692 68.83 75.9178 67.3761C76.6404 66.3715 78.2882 65.975 78.3058 64.7325C78.3058 63.1905 75.6623 62.9173 75.3539 61.3929C77.0105 57.2689 82.1654 56.2027 86.2541 54.4579C91.2661 52.3232 95.3894 48.5266 97.9298 43.7075C98.1828 43.3516 98.3576 42.9462 98.4426 42.5179C98.5277 42.0896 98.5211 41.6481 98.4233 41.2226C98.0179 40.0594 96.5992 39.6805 95.3656 39.4602C92.4753 38.9932 88.8095 38.861 87.3644 41.4076C86.5978 42.7734 86.7652 44.4741 86.2012 45.9369C84.5358 50.2811 78.2706 49.8934 74.1643 52.0259C72.5429 52.8454 71.1947 54.1319 69.4588 54.6694C67.5818 55.2598 65.5375 54.8985 63.5724 54.7664C63.2288 54.7664 62.8763 54.7664 62.5238 54.7664C61.0963 56.2467 59.7041 57.7712 58.3558 59.3221C57.0076 60.873 55.7123 62.4591 54.4081 64.0717C48.3212 71.7106 43.0743 79.9826 38.7583 88.7448C37.2251 91.8201 35.824 94.966 34.5286 98.1823C33.2333 101.399 32.0613 104.677 31.0039 108.016C32.7663 105.452 33.8413 102.121 34.7137 99.7772C35.8769 96.6843 37.4542 93.4239 40.274 91.6086Z" fill="#00B7EA"/>
<g opacity="0.6">
<path d="M297.199 120.679C297.599 122.506 297.957 124.333 298.274 126.16C297.957 124.327 297.599 122.5 297.199 120.679Z" fill="#263238"/>
</g>
<path d="M299.103 167.699C299.377 165.734 299.606 163.778 299.773 161.821C299.94 159.865 300.081 157.918 300.161 155.97C300.24 154.393 300.284 152.833 300.293 151.265C300.302 149.696 300.293 147.969 300.293 146.33C300.184 141.434 299.807 136.548 299.165 131.694C298.918 129.843 298.636 127.993 298.284 126.16C297.931 124.327 297.605 122.503 297.209 120.679C296.704 119.287 296.146 117.906 295.535 116.537C289.692 103.434 280.043 92.4194 273.364 79.7215C271.187 75.5976 269.513 72.1962 264.799 70.7687C257.838 68.6363 253.643 72.1698 249.563 64.6797C248.462 62.6706 246.329 60.6439 244.17 61.4282C244.479 62.9526 244.805 64.4771 245.113 66.0191C245.188 66.3409 245.188 66.6755 245.113 66.9972C244.858 68.0018 243.307 68.0635 242.523 67.3762C241.861 66.5586 241.348 65.631 241.007 64.6357C240.525 63.7838 239.87 63.0417 239.085 62.4567C238.301 61.8717 237.402 61.4565 236.448 61.2376C235.494 61.0188 234.505 61.0011 233.544 61.1856C232.582 61.3701 231.67 61.7528 230.864 62.3094C230.899 61.6151 230.75 60.9239 230.433 60.3053C230.116 59.6867 229.642 59.1622 229.058 58.7846C228.86 59.4209 228.53 60.0082 228.089 60.508C227.649 61.0079 227.107 61.409 226.501 61.6852C225.895 61.9614 225.237 62.1064 224.57 62.1107C223.904 62.115 223.244 61.9785 222.634 61.7101C222.414 60.3355 224.811 60.4413 225.789 59.4367C226.767 58.4322 226 56.8813 225.163 55.8591C222.884 53.2223 219.766 51.4516 216.334 50.8452C214.157 50.4927 211.743 50.5632 210.007 49.1621C209.002 48.3514 208.377 47.1618 207.363 46.3687C205.16 44.6681 201.979 45.4876 199.371 46.4745C195.793 47.8315 192.048 49.6467 190.365 53.0834C188.682 56.52 190.568 61.7366 194.392 61.8247C195.362 61.8247 196.419 61.5251 197.309 61.9216C198.596 62.4768 198.974 64.1246 198.886 65.5169C198.798 66.9091 198.428 68.3455 198.93 69.6496C199.433 70.9538 201.274 71.8438 202.2 70.804C204.217 69.3764 204.403 66.5214 204.297 64.0541C204.191 61.5868 204.112 58.8199 205.821 57.0663C207.531 55.3128 211.567 56.5288 210.932 58.908C210.553 60.3091 208.782 61.1109 208.641 62.5649C208.5 64.0188 210.174 65.0763 211.646 65.2084C213.117 65.3406 214.695 65.0587 216.052 65.6314C217.409 66.2042 218.316 68.2309 217.127 69.1562C215.038 70.9185 210.879 66.777 209.584 69.1562C209.231 69.7642 209.381 70.5396 209.223 71.2181C208.738 73.3153 205.971 73.7031 203.821 73.659C201.671 73.6149 199.415 73.4828 197.6 72.2932C195.785 71.1036 194.859 68.3983 196.216 66.7417C195.256 65.8077 193.494 66.3452 192.736 67.4731C192.1 68.6675 191.822 70.0196 191.934 71.3679C189.757 70.5484 187.475 72.1522 185.933 73.8529C184.391 75.5535 182.805 77.5891 180.531 77.9416C178.258 78.294 175.341 76.9458 173.905 78.7699C172.037 81.1491 175.887 85.0527 174.002 87.4055C172.927 88.7272 170.865 88.3836 169.155 88.6039C164.635 89.2031 162.203 95.3361 164.67 99.1781C167.137 103.02 173.085 103.663 176.689 100.879C179.192 98.9666 180.531 95.9618 182.496 93.5121C184.461 91.0624 187.783 89.1061 190.638 90.3927C191.727 90.9916 192.683 91.8038 193.449 92.7807C194.718 94.1994 195.996 95.6181 197.265 97.0632C198.076 97.9444 198.957 99.09 198.692 100.288C198.463 101.249 197.6 101.892 197.142 102.756C195.855 105.241 199.283 108.263 201.865 107.162C204.447 106.06 205.231 102.465 203.936 99.98C202.173 96.5521 197.291 94.2611 197.97 90.4367C200.869 88.6744 204.632 91.503 205.707 94.7281C206.782 97.9532 206.324 101.478 207.152 104.747C207.98 108.016 211.144 111.303 214.342 110.219C213.955 107.435 213.576 104.668 213.188 101.892C215.294 100.747 216.871 105.205 219.242 104.844C220.687 104.615 221.145 102.65 220.74 101.222C220.334 99.7949 219.427 98.5172 219.383 97.0368C219.33 94.3404 222.608 92.4106 225.198 93.2213C227.789 94.032 229.331 96.8429 229.446 99.5306C229.39 100.6 229.473 101.672 229.693 102.72C230.389 104.932 232.865 105.937 234.856 107.126C236.848 108.316 238.769 110.757 237.57 112.748C237.033 113.629 235.931 114.361 236.134 115.392C236.337 116.423 237.535 116.828 237.412 117.736C237.297 118.335 236.61 118.617 236.019 118.811C234.504 119.19 232.926 119.155 231.446 119.63C229.966 120.106 228.521 121.234 228.415 122.759C228.274 124.944 230.688 126.354 231.64 128.319C232.592 130.284 232.063 132.443 232.521 134.487C232.953 136.382 234.178 138.012 235.103 139.695C237.976 145.097 237.914 151.503 238.822 157.539C239.227 160.271 240.231 163.39 242.831 164.271C244.306 164.606 245.844 164.533 247.281 164.06C251.361 163.081 255.617 162.024 258.736 159.284C261.856 156.543 263.565 151.529 261.221 148.04C260.964 147.562 260.541 147.196 260.032 147.009C259.294 146.951 258.554 147.094 257.89 147.423C255.793 148.049 253.484 146.947 252.057 145.255C250.629 143.563 249.942 141.448 249.246 139.36C248.497 137.069 247.757 134.76 246.981 132.443C248.418 131.562 250.383 132.293 251.546 133.544C252.709 134.796 253.264 136.435 254.137 137.888C256.78 142.374 261.812 144.938 266.843 146.251C268.147 146.512 269.404 146.97 270.571 147.608C274.139 149.908 274.421 155.706 278.29 157.504C279.365 158.006 280.625 158.12 281.612 158.773C283.101 159.759 283.639 161.689 283.868 163.469C284.291 166.774 284.114 170.157 285.013 173.383C285.912 176.608 288.194 179.727 291.472 180.247C292.507 180.369 293.555 180.287 294.557 180.004C295.56 179.721 296.497 179.244 297.315 178.599C297.923 175.647 298.46 172.678 298.892 169.655C298.971 168.959 299.059 168.333 299.103 167.699Z" fill="#00B7EA"/>
<path d="M235.975 216.464C233.887 216.569 233.332 217.706 231.984 219.054C230.265 220.817 227.921 222.465 226.326 224.209C223.63 227.17 224.89 232.581 221.577 234.916C220.847 235.304 220.138 235.73 219.453 236.193C218.816 236.843 218.459 237.716 218.459 238.626C218.459 239.535 218.816 240.408 219.453 241.058C220.129 241.671 220.968 242.076 221.868 242.223C222.769 242.37 223.693 242.253 224.529 241.886C226.193 241.113 227.518 239.759 228.256 238.079C228.82 236.898 229.243 235.533 230.345 234.819C232.222 233.594 234.662 235.057 236.909 235.066C246.47 235.145 245.122 215.997 235.975 216.464Z" fill="#00B7EA"/>
<path d="M242.764 189.931C248.827 186.045 252.528 175.832 246.183 172.422C243.787 171.135 240.764 171.462 238.394 170.122C235.292 168.36 234.296 164.474 233.591 160.993C231.741 151.852 229.887 142.714 228.031 133.579C226.912 128.072 224.947 121.595 219.554 120.027C216.496 119.146 213.262 120.185 210.081 120.309C199.128 120.705 184.923 92.296 174.296 108.492C173.847 103.61 165.916 104.271 162.841 108.113C159.766 111.955 158.435 117.436 154.153 119.78C150.866 121.542 146.504 121.075 143.675 123.534C141.684 125.296 141.032 128.002 140.397 130.583C139.269 135.489 138.138 140.397 137.005 145.308C136.124 149.265 135.242 153.503 136.679 157.292C138.115 161.081 143.058 163.76 146.416 161.478C147.958 160.429 148.813 158.631 150.134 157.319C151.226 156.272 152.598 155.565 154.084 155.282C155.569 154.998 157.105 155.152 158.506 155.724C160.832 156.711 162.515 158.781 163.951 160.87C175.68 177.824 177.574 199.836 175.23 220.314C174.807 224.068 174.252 227.901 175.125 231.576C176.147 235.876 179.064 239.656 179.443 244.062C179.733 247.446 178.491 250.944 179.443 254.196C181.205 260.197 189.814 261.686 195.092 258.337C200.371 254.989 202.944 248.724 204.785 242.74C206.627 236.757 208.169 230.404 212.337 225.742C214.928 222.852 218.417 220.746 220.418 217.424C223.211 212.771 222.515 206.682 225.176 201.95C228.665 195.659 236.658 193.808 242.764 189.931Z" fill="#99E2F7"/>
<path d="M63.2013 245.578C64.4262 246.882 65.6774 248.124 66.9552 249.34C67.9597 250.322 68.9789 251.279 70.0129 252.213C71.0527 253.156 72.1013 254.081 73.1763 254.989C73.9165 255.623 74.6655 256.24 75.441 256.857C75.3705 256.601 75.2912 256.372 75.2119 256.117C73.1675 249.067 74.3307 239.568 81.3008 237.242C82.6226 236.792 84.0766 236.651 85.2309 235.85C88.4913 233.541 86.9492 227.584 90.2184 225.275C92.0601 223.998 94.5715 224.473 96.7039 223.857C100.555 222.72 102.388 218.261 102.687 214.243C102.987 210.225 102.229 206.136 103.251 202.241C104.828 196.364 110.371 190.971 108.477 185.181C106.344 178.722 97.4529 178.432 91.734 174.836C83.6888 169.814 82.5697 158.764 78.0493 150.41C73.987 142.946 63.3071 133.835 54.0723 134.549C47.3841 135.077 44.5995 138.62 43.2425 143.281L42.4406 143.026C40.0791 142.426 37.2945 141.889 36.2724 139.712C35.0739 137.175 37.0742 133.958 35.8318 131.465C35.1797 130.16 33.8315 129.438 32.7829 128.424C31.7343 127.411 30.9676 125.737 31.9017 124.582C32.6331 123.613 34.1751 123.613 35.0739 122.75C35.4226 122.4 35.6454 121.945 35.7076 121.456C35.7698 120.966 35.6678 120.47 35.4176 120.044C33.3821 116.775 29.778 122.318 28.2183 123.525C27.8193 123.844 27.4015 124.138 26.967 124.406C26.9142 124.662 26.8525 124.891 26.8172 125.155C26.6674 125.957 26.5529 126.785 26.4207 127.614C26.2885 128.442 26.1387 129.244 26.0154 130.063C25.9184 130.733 25.8479 131.403 25.7598 132.073C25.6717 132.742 25.5748 133.412 25.5043 134.073C25.5043 134.399 25.4162 134.698 25.3897 135.025C23.7446 149.923 24.5453 164.99 27.7601 179.63C29.1983 186.13 31.1217 192.513 33.5142 198.725C34.4924 201.369 35.6115 204.056 36.8011 206.656C38.2726 209.89 39.8411 213.071 41.5771 216.164C43.172 219.133 44.908 222.05 46.7761 224.879C49.3169 228.795 52.0581 232.577 54.9887 236.211C57.5852 239.454 60.3316 242.57 63.2278 245.56" fill="#99E2F7"/>
<path d="M40.27 91.6086C43.1339 89.7934 47.5751 90.1723 49.1524 93.1771C50.2715 95.3272 49.5665 97.9355 48.8528 100.227C47.8894 103.346 46.923 106.468 45.9537 109.594C45.5742 110.507 45.473 111.513 45.6629 112.484C46.3238 114.652 49.7075 114.749 51.2408 113.118C52.774 111.488 53.0032 108.986 53.0032 106.73C53.0032 104.474 52.8622 102.059 54.0253 100.112C56.9244 95.2832 64.485 97.1689 69.4196 94.4637C72.4773 92.7894 74.2132 89.4938 76.2928 86.6828C78.3724 83.8719 81.5799 81.2283 84.9989 81.8804C86.1533 82.0919 87.2371 82.6823 88.4091 82.8144C91.8369 83.1933 94.5774 78.4966 92.4802 75.765C91.9784 75.2344 91.5461 74.6422 91.1936 74.0026C91.0466 73.3655 91.1221 72.6972 91.4074 72.1089C91.6927 71.5206 92.1708 71.0477 92.7622 70.7687C93.9583 70.2529 95.2608 70.0323 96.5601 70.1254C99.5473 70.0725 102.526 70.0461 105.504 70.0108C108.8 70.0108 113.162 68.9094 113.179 65.6049C113.179 62.7587 109.593 60.9611 109.434 58.1149C109.483 57.4208 109.456 56.7236 109.355 56.0353C108.729 54.1319 105.971 54.4579 104.121 55.1541C103.993 54.5075 103.718 53.8991 103.316 53.3769C102.914 52.8547 102.396 52.4327 101.804 52.1441C101.211 51.8555 100.56 51.7082 99.9007 51.7137C99.2416 51.7192 98.5928 51.8773 98.0052 52.1757C96.0754 53.3476 95.4938 55.8238 94.5774 57.8769C92.4009 62.8556 87.713 66.1865 83.2542 69.2706C81.7562 70.2928 80.0819 71.3679 78.2755 71.2004C76.4691 71.033 74.8653 68.83 75.9139 67.3761C76.6365 66.3715 78.2843 65.975 78.3019 64.7325C78.3019 63.1905 75.6584 62.9173 75.35 61.3929C77.0066 57.2689 82.1615 56.2027 86.2502 54.4579C91.2622 52.3232 95.3855 48.5266 97.9259 43.7075C98.1789 43.3516 98.3537 42.9462 98.4387 42.5179C98.5238 42.0896 98.5172 41.6481 98.4194 41.2226C98.014 40.0594 96.5953 39.6805 95.3616 39.4602C92.4714 38.9932 88.8056 38.861 87.3605 41.4076C86.5939 42.7734 86.7613 44.4741 86.1973 45.9369C84.5319 50.2811 78.2667 49.8934 74.1604 52.0259C72.539 52.8454 71.1908 54.1319 69.4549 54.6694C67.5779 55.2598 65.5336 54.8985 63.5685 54.7664C63.2249 54.7664 62.8724 54.7664 62.5199 54.7664C61.0924 56.2467 59.7001 57.7712 58.3519 59.3221C57.0037 60.873 55.7084 62.4591 54.4042 64.0717C48.3173 71.7106 43.0704 79.9826 38.7544 88.7448C37.2212 91.8201 35.8201 94.966 34.5247 98.1823C33.2294 101.399 32.0574 104.677 31 108.016C32.7624 105.452 33.8374 102.121 34.7098 99.7772C35.8729 96.6843 37.4503 93.4239 40.27 91.6086Z" fill="#99E2F7"/>
<path d="M299.104 167.699C299.377 165.734 299.607 163.777 299.774 161.821C299.941 159.865 300.082 157.918 300.162 155.97C300.241 154.393 300.285 152.833 300.294 151.265C300.303 149.696 300.294 147.969 300.294 146.33C300.185 141.434 299.808 136.548 299.166 131.694C298.919 129.843 298.637 127.993 298.285 126.16C297.932 124.327 297.606 122.503 297.21 120.679C296.705 119.286 296.146 117.906 295.535 116.537C289.693 103.434 280.044 92.4192 273.365 79.7213C271.188 75.5974 269.514 72.196 264.8 70.7685C257.838 68.636 253.644 72.1696 249.564 64.6795C248.463 62.6704 246.33 60.6437 244.171 61.4279C244.48 62.9524 244.806 64.4768 245.114 66.0189C245.189 66.3407 245.189 66.6752 245.114 66.997C244.859 68.0016 243.308 68.0633 242.523 67.3759C241.861 66.5584 241.348 65.6308 241.008 64.6355C240.526 63.7836 239.871 63.0415 239.086 62.4565C238.301 61.8714 237.403 61.4563 236.449 61.2374C235.495 61.0186 234.506 61.0008 233.544 61.1854C232.583 61.3699 231.671 61.7526 230.865 62.3091C230.9 61.6148 230.751 60.9237 230.434 60.3051C230.117 59.6864 229.643 59.162 229.059 58.7844C228.861 59.4207 228.531 60.008 228.09 60.5078C227.65 61.0077 227.108 61.4088 226.502 61.685C225.895 61.9612 225.238 62.1062 224.571 62.1105C223.905 62.1148 223.245 61.9783 222.635 61.7099C222.415 60.3353 224.812 60.441 225.79 59.4365C226.768 58.4319 226.001 56.881 225.164 55.8589C222.885 53.2221 219.767 51.4514 216.335 50.8449C214.158 50.4925 211.744 50.563 210.008 49.1619C209.003 48.3512 208.378 47.1616 207.364 46.3685C205.161 44.6678 206.007 48.2719 203.399 49.2676C199.821 50.6246 197.883 51.03 196.191 54.4666C195.853 55.1553 195.559 55.8646 195.31 56.5902C194.964 57.5263 194.951 58.5527 195.271 59.4975C195.592 60.4424 196.228 61.2483 197.072 61.7804L197.336 61.9214C198.623 62.4766 199.002 64.1244 198.914 65.5166C198.826 66.9089 198.455 68.3452 198.958 69.6494C199.46 70.9535 201.302 71.8435 202.227 70.8037C204.245 69.3762 204.43 66.5212 204.324 64.0539C204.218 61.5866 204.139 58.8196 205.849 57.0661C207.558 55.3125 211.594 56.5286 210.959 58.9078C210.581 60.3088 208.809 61.1107 208.668 62.5647C208.527 64.0186 210.202 65.076 211.673 65.2082C213.145 65.3404 214.722 65.0584 216.079 65.6312C217.436 66.204 218.344 68.2307 217.154 69.1559C215.066 70.9183 210.907 66.7767 209.611 69.1559C209.259 69.7639 209.409 70.5394 209.25 71.2179C208.765 73.3151 205.998 73.7028 203.848 73.6588C201.698 73.6147 199.442 73.4825 197.627 72.2929C195.812 71.1033 194.887 68.3981 196.244 66.7415C195.283 65.8074 193.521 66.345 192.763 67.4729C192.128 68.6673 191.849 70.0194 191.961 71.3677C189.785 70.5482 187.502 72.152 185.96 73.8526C184.418 75.5533 182.832 77.5889 180.559 77.9413C178.285 78.2938 175.368 76.9456 173.932 78.7696C172.064 81.1488 175.915 85.0525 174.029 87.4052C172.954 88.727 170.892 88.3834 169.183 88.6036C164.662 89.2029 162.23 95.3359 164.697 99.1778C167.165 103.02 173.113 103.663 176.717 100.879C179.219 98.9664 180.559 95.9615 182.524 93.5118C184.489 91.0622 187.811 89.1059 190.666 90.3924C191.754 90.9913 192.71 91.8035 193.477 92.7805C194.746 94.1992 196.023 95.6179 197.292 97.063C198.103 97.9442 198.984 99.0897 198.72 100.288C198.491 101.249 197.627 101.892 197.169 102.755C195.882 105.24 199.31 108.263 201.892 107.161C204.474 106.06 205.258 102.465 203.963 99.9797C202.2 96.5519 197.319 94.2608 197.997 90.4365C200.896 88.6741 204.659 91.5027 205.734 94.7279C206.809 97.953 206.351 101.478 207.179 104.747C208.007 108.016 211.171 111.303 214.37 110.219C213.982 107.435 213.603 104.668 213.215 101.892C215.321 100.746 216.899 105.205 219.269 104.844C220.714 104.615 221.172 102.65 220.767 101.222C220.362 99.7947 219.454 98.517 219.41 97.0366C219.357 94.3402 222.635 92.4104 225.226 93.2211C227.817 94.0317 229.359 96.8427 229.473 99.5303C229.418 100.6 229.5 101.672 229.72 102.72C230.416 104.932 232.892 105.937 234.884 107.126C236.875 108.316 238.796 110.757 237.598 112.748C237.06 113.629 235.959 114.361 236.161 115.392C236.364 116.423 237.562 116.828 237.439 117.736C237.324 118.335 236.637 118.617 236.047 118.811C234.531 119.19 232.954 119.154 231.473 119.63C229.993 120.106 228.548 121.234 228.442 122.758C228.301 124.944 230.716 126.354 231.667 128.319C232.619 130.284 232.09 132.443 232.548 134.487C232.98 136.381 234.205 138.012 235.13 139.695C238.003 145.096 237.941 151.503 238.849 157.539C239.254 160.27 240.259 163.39 242.858 164.271C244.333 164.605 245.872 164.532 247.308 164.059C251.388 163.081 255.644 162.024 258.764 159.283C261.883 156.543 263.593 151.529 261.249 148.039C260.991 147.562 260.568 147.195 260.059 147.009C259.321 146.951 258.581 147.094 257.918 147.423C255.821 148.048 253.512 146.947 252.084 145.255C250.657 143.563 249.969 141.448 249.273 139.36C248.524 137.069 247.784 134.76 247.009 132.443C248.445 131.561 250.41 132.293 251.573 133.544C252.736 134.795 253.292 136.434 254.164 137.888C256.807 142.373 261.839 144.938 266.871 146.251C268.175 146.512 269.431 146.969 270.598 147.608C274.167 149.908 274.449 155.706 278.317 157.503C279.392 158.006 280.652 158.12 281.639 158.772C283.128 159.759 283.666 161.689 283.895 163.469C284.318 166.773 284.142 170.157 285.041 173.382C285.939 176.607 288.222 179.727 291.5 180.247C292.534 180.369 293.582 180.287 294.585 180.004C295.587 179.721 296.524 179.244 297.342 178.599C297.95 175.647 298.487 172.677 298.919 169.655C298.972 168.959 299.06 168.333 299.104 167.699Z" fill="#99E2F7"/>
<path d="M235.975 216.463C233.887 216.569 233.332 217.706 231.984 219.054C230.265 220.817 227.921 222.464 226.326 224.209C223.63 227.17 224.89 232.58 221.577 234.915C220.847 235.304 220.138 235.73 219.453 236.193C218.816 236.842 218.459 237.716 218.459 238.625C218.459 239.535 218.816 240.408 219.453 241.057C220.129 241.671 220.968 242.076 221.868 242.223C222.769 242.37 223.693 242.253 224.529 241.886C226.193 241.112 227.518 239.759 228.256 238.079C228.82 236.898 229.243 235.532 230.345 234.819C232.222 233.594 234.662 235.056 236.909 235.065C246.47 235.145 245.122 215.996 235.975 216.463Z" fill="#99E2F7"/>
<path d="M44.835 17.6951C43.0141 17.1336 41.0843 17.0214 39.2106 17.3682C37.3369 17.715 35.5751 18.5105 34.0758 19.6866C34.0758 19.6866 26.8236 25.2292 29.6699 33.3625C30.7451 36.3457 32.8516 38.8461 35.6091 40.412C36.6484 41.016 37.7468 41.512 38.887 41.8924C42.8348 43.1701 54.3078 46.0956 54.3078 46.0956L55.5679 45.1263C55.4709 41.6016 53.8055 31.0274 53.2151 27.6436C52.4308 23.458 49.4348 19.0609 44.835 17.6951ZM47.4786 34.7019C46.2538 35.64 44.7784 36.1938 43.2388 36.2931C41.6993 36.3925 40.1649 36.033 38.8297 35.2601C37.4945 34.4872 36.4186 33.3357 35.738 31.9512C35.0574 30.5667 34.8027 29.0115 35.0062 27.4822C35.2097 25.953 35.8622 24.5184 36.8812 23.3601C37.9001 22.2017 39.2397 21.3716 40.7306 20.9748C42.2214 20.578 43.7964 20.6322 45.2564 21.1307C46.7164 21.6292 47.9957 22.5495 48.9325 23.7753C49.5551 24.5879 50.0114 25.5154 50.2753 26.5045C50.5392 27.4937 50.6055 28.5252 50.4705 29.54C50.3355 30.5548 50.0017 31.533 49.4884 32.4187C48.975 33.3045 48.292 34.0803 47.4786 34.7019Z" fill="#00B7EA"/>
<path opacity="0.4" d="M44.835 17.6951C43.0141 17.1336 41.0843 17.0214 39.2106 17.3682C37.3369 17.715 35.5751 18.5105 34.0758 19.6866C34.0758 19.6866 26.8236 25.2292 29.6699 33.3625C30.7451 36.3457 32.8516 38.8461 35.6091 40.412C36.6484 41.016 37.7468 41.512 38.887 41.8924C42.8348 43.1701 54.3078 46.0956 54.3078 46.0956L55.5679 45.1263C55.4709 41.6016 53.8055 31.0274 53.2151 27.6436C52.4308 23.458 49.4348 19.0609 44.835 17.6951ZM47.4786 34.7019C46.2538 35.64 44.7784 36.1938 43.2388 36.2931C41.6993 36.3925 40.1649 36.033 38.8297 35.2601C37.4945 34.4872 36.4186 33.3357 35.738 31.9512C35.0574 30.5667 34.8027 29.0115 35.0062 27.4822C35.2097 25.953 35.8622 24.5184 36.8812 23.3601C37.9001 22.2017 39.2397 21.3716 40.7306 20.9748C42.2214 20.578 43.7964 20.6322 45.2564 21.1307C46.7164 21.6292 47.9957 22.5495 48.9325 23.7753C49.5551 24.5879 50.0114 25.5154 50.2753 26.5045C50.5392 27.4937 50.6055 28.5252 50.4705 29.54C50.3355 30.5548 50.0017 31.533 49.4884 32.4187C48.975 33.3045 48.292 34.0803 47.4786 34.7019Z" fill="#99E2F7"/>
<path d="M46.1505 16.7698C44.331 16.2082 42.4025 16.0961 40.5302 16.4429C38.6579 16.7898 36.8976 17.5853 35.4 18.7613C35.4 18.7613 28.1479 24.3039 30.9941 32.4372C32.0693 35.4204 34.1758 37.9208 36.9333 39.4867C37.9729 40.096 39.0748 40.5923 40.2201 40.9671C44.159 42.2448 55.632 45.1703 55.632 45.1703C55.632 45.1703 55.2795 30.763 54.5393 26.7183C53.7374 22.5327 50.7502 18.1444 46.1505 16.7698ZM47.5251 34.7459C46.7144 35.3794 45.7854 35.8449 44.7926 36.1151C43.7998 36.3852 42.7631 36.4546 41.7432 36.3192C40.7232 36.1838 39.7406 35.8463 38.8526 35.3265C37.9647 34.8067 37.1893 34.1151 36.572 33.292C35.6339 32.0672 35.0801 30.5917 34.9808 29.0522C34.8814 27.5127 35.2409 25.9783 36.0138 24.6431C36.7867 23.3079 37.9382 22.232 39.3227 21.5514C40.7072 20.8708 42.2624 20.6161 43.7917 20.8196C45.3209 21.0231 46.7555 21.6756 47.9138 22.6945C49.0722 23.7135 49.9023 25.0531 50.2991 26.5439C50.696 28.0348 50.6417 29.6098 50.1432 31.0698C49.6447 32.5298 48.7244 33.8091 47.4987 34.7459H47.5251Z" fill="#00B7EA"/>
<path d="M38.0104 22.3123C36.7392 23.2982 35.8031 24.6524 35.33 26.19C34.8569 27.7277 34.8698 29.3738 35.3669 30.9039C35.0369 29.4828 35.1813 27.9928 35.7779 26.6615C36.3745 25.3302 37.3905 24.2309 38.6708 23.5314C39.9511 22.832 41.4251 22.5709 42.8677 22.7882C44.3103 23.0054 45.6421 23.6889 46.6596 24.7344C47.6772 25.7798 48.3244 27.1296 48.5026 28.5776C48.6807 30.0255 48.3799 31.4919 47.6461 32.7528C46.9122 34.0137 45.7858 34.9996 44.4389 35.56C43.0919 36.1204 41.5986 36.2244 40.187 35.8561C41.4606 36.3077 42.8296 36.4206 44.16 36.1838C45.4904 35.9469 46.7363 35.3685 47.7758 34.5051C48.8153 33.6417 49.6126 32.523 50.0896 31.2588C50.5666 29.9945 50.7069 28.6279 50.4967 27.2931C50.2865 25.9582 49.7331 24.7009 48.8907 23.6444C48.0483 22.5878 46.9458 21.7683 45.6914 21.2661C44.4369 20.7639 43.0734 20.5963 41.7346 20.7797C40.3959 20.9631 39.1277 21.4912 38.0545 22.3123H38.0104Z" fill="#00B7EA"/>
<path opacity="0.4" d="M38.0104 22.3123C36.7392 23.2982 35.8031 24.6524 35.33 26.19C34.8569 27.7277 34.8698 29.3738 35.3669 30.9039C35.0369 29.4828 35.1813 27.9928 35.7779 26.6615C36.3745 25.3302 37.3905 24.2309 38.6708 23.5314C39.9511 22.832 41.4251 22.5709 42.8677 22.7882C44.3103 23.0054 45.6421 23.6889 46.6596 24.7344C47.6772 25.7798 48.3244 27.1296 48.5026 28.5776C48.6807 30.0255 48.3799 31.4919 47.6461 32.7528C46.9122 34.0137 45.7858 34.9996 44.4389 35.56C43.0919 36.1204 41.5986 36.2244 40.187 35.8561C41.4606 36.3077 42.8296 36.4206 44.16 36.1838C45.4904 35.9469 46.7363 35.3685 47.7758 34.5051C48.8153 33.6417 49.6126 32.523 50.0896 31.2588C50.5666 29.9945 50.7069 28.6279 50.4967 27.2931C50.2865 25.9582 49.7331 24.7009 48.8907 23.6444C48.0483 22.5878 46.9458 21.7683 45.6914 21.2661C44.4369 20.7639 43.0734 20.5963 41.7346 20.7797C40.3959 20.9631 39.1277 21.4912 38.0545 22.3123H38.0104Z" fill="#99E2F7"/>
<path d="M338.915 124.618C340.254 123.261 341.243 121.599 341.798 119.776C342.354 117.953 342.459 116.022 342.105 114.149C342.105 114.149 340.528 105.161 332.007 103.91C328.862 103.483 325.668 104.203 323.01 105.937C321.991 106.574 321.043 107.319 320.181 108.157C317.238 111.074 309.352 119.903 309.352 119.903L309.625 121.481C312.779 123.005 322.983 126.442 326.226 127.438C330.315 128.689 335.584 128.063 338.915 124.618ZM322.605 119.119C322.339 117.6 322.529 116.036 323.152 114.625C323.774 113.215 324.801 112.02 326.103 111.193C327.404 110.366 328.922 109.943 330.464 109.978C332.005 110.013 333.502 110.504 334.765 111.39C336.027 112.275 336.999 113.516 337.557 114.953C338.114 116.391 338.233 117.962 337.899 119.467C337.564 120.973 336.79 122.345 335.676 123.411C334.561 124.476 333.156 125.188 331.637 125.455C330.627 125.634 329.593 125.611 328.592 125.389C327.592 125.167 326.645 124.75 325.806 124.162C324.967 123.573 324.252 122.825 323.703 121.959C323.153 121.094 322.78 120.129 322.605 119.119Z" fill="#00B7EA"/>
<path opacity="0.4" d="M338.915 124.618C340.254 123.261 341.243 121.599 341.798 119.776C342.354 117.953 342.459 116.022 342.105 114.149C342.105 114.149 340.528 105.161 332.007 103.91C328.862 103.483 325.668 104.203 323.01 105.937C321.991 106.574 321.043 107.319 320.181 108.157C317.238 111.074 309.352 119.903 309.352 119.903L309.625 121.481C312.779 123.005 322.983 126.442 326.226 127.438C330.315 128.689 335.584 128.063 338.915 124.618ZM322.605 119.119C322.339 117.6 322.529 116.036 323.152 114.625C323.774 113.215 324.801 112.02 326.103 111.193C327.404 110.366 328.922 109.943 330.464 109.978C332.005 110.013 333.502 110.504 334.765 111.39C336.027 112.275 336.999 113.516 337.557 114.953C338.114 116.391 338.233 117.962 337.899 119.467C337.564 120.973 336.79 122.345 335.676 123.411C334.561 124.476 333.156 125.188 331.637 125.455C330.627 125.634 329.593 125.611 328.592 125.389C327.592 125.167 326.645 124.75 325.806 124.162C324.967 123.573 324.252 122.825 323.703 121.959C323.153 121.094 322.78 120.129 322.605 119.119Z" fill="#99E2F7"/>
<path d="M339.135 126.204C340.474 124.849 341.466 123.19 342.024 121.368C342.583 119.547 342.692 117.617 342.343 115.744C342.343 115.744 340.756 106.747 332.244 105.505C329.098 105.083 325.904 105.799 323.238 107.523C322.223 108.165 321.277 108.912 320.419 109.752C317.449 112.66 309.562 121.472 309.562 121.472C309.562 121.472 322.516 127.799 326.446 129.006C330.526 130.284 335.795 129.658 339.135 126.204ZM322.542 119.154C322.275 117.635 322.463 116.071 323.085 114.659C323.706 113.247 324.732 112.052 326.033 111.223C327.334 110.395 328.852 109.97 330.394 110.004C331.936 110.038 333.433 110.529 334.697 111.414C335.96 112.299 336.933 113.538 337.491 114.976C338.05 116.414 338.17 117.985 337.836 119.491C337.501 120.996 336.728 122.369 335.614 123.436C334.499 124.502 333.094 125.214 331.574 125.481C330.565 125.666 329.528 125.648 328.525 125.429C327.522 125.209 326.573 124.793 325.733 124.203C324.892 123.614 324.178 122.863 323.63 121.995C323.082 121.126 322.712 120.158 322.542 119.146V119.154Z" fill="#00B7EA"/>
<path d="M337.936 116.423C337.656 114.836 336.891 113.375 335.747 112.241C334.604 111.106 333.136 110.354 331.547 110.087C332.961 110.45 334.217 111.266 335.123 112.41C336.029 113.554 336.535 114.964 336.564 116.423C336.594 117.882 336.144 119.31 335.285 120.49C334.426 121.669 333.204 122.535 331.806 122.954C330.408 123.374 328.911 123.324 327.544 122.812C326.178 122.3 325.016 121.355 324.237 120.121C323.459 118.886 323.106 117.431 323.232 115.977C323.359 114.523 323.958 113.151 324.938 112.07C323.95 112.991 323.217 114.154 322.814 115.444C322.41 116.734 322.348 118.106 322.634 119.427C322.921 120.748 323.545 121.972 324.447 122.979C325.349 123.985 326.497 124.74 327.779 125.169C329.061 125.599 330.432 125.687 331.758 125.427C333.084 125.167 334.32 124.566 335.344 123.684C336.368 122.802 337.146 121.669 337.6 120.396C338.055 119.123 338.17 117.754 337.936 116.423Z" fill="#00B7EA"/>
<path opacity="0.4" d="M337.936 116.423C337.656 114.836 336.891 113.375 335.747 112.241C334.604 111.106 333.136 110.354 331.547 110.087C332.961 110.45 334.217 111.266 335.123 112.41C336.029 113.554 336.535 114.964 336.564 116.423C336.594 117.882 336.144 119.31 335.285 120.49C334.426 121.669 333.204 122.535 331.806 122.954C330.408 123.374 328.911 123.324 327.544 122.812C326.178 122.3 325.016 121.355 324.237 120.121C323.459 118.886 323.106 117.431 323.232 115.977C323.359 114.523 323.958 113.151 324.938 112.07C323.95 112.991 323.217 114.154 322.814 115.444C322.41 116.734 322.348 118.106 322.634 119.427C322.921 120.748 323.545 121.972 324.447 122.979C325.349 123.985 326.497 124.74 327.779 125.169C329.061 125.599 330.432 125.687 331.758 125.427C333.084 125.167 334.32 124.566 335.344 123.684C336.368 122.802 337.146 121.669 337.6 120.396C338.055 119.123 338.17 117.754 337.936 116.423Z" fill="#99E2F7"/>
<path d="M20.6068 260.699C20.3507 262.589 20.5569 264.513 21.2076 266.305C21.8584 268.098 22.9343 269.706 24.343 270.991C24.343 270.991 31.0047 277.23 38.5565 273.106C41.332 271.55 43.4556 269.048 44.5397 266.057C44.9566 264.931 45.252 263.764 45.4209 262.576C46.0289 258.479 47.0246 246.715 47.0246 246.715L45.8615 245.622C42.4249 246.301 32.2031 249.675 29.0132 250.83C25.0391 252.301 21.1971 255.967 20.6068 260.699ZM36.9439 255.297C38.0708 256.351 38.8598 257.716 39.2111 259.218C39.5623 260.72 39.4601 262.293 38.9172 263.737C38.3744 265.182 37.4153 266.432 36.1614 267.331C34.9075 268.23 33.4151 268.737 31.8731 268.788C30.331 268.838 28.8086 268.43 27.4985 267.615C26.1884 266.801 25.1494 265.615 24.5131 264.21C23.8768 262.804 23.6716 261.242 23.9237 259.719C24.1758 258.197 24.8737 256.784 25.9291 255.659C27.3462 254.155 29.3021 253.275 31.3672 253.213C33.4324 253.15 35.4381 253.909 36.9439 255.324V255.297Z" fill="#263238"/>
<path d="M19.4779 259.588C19.2218 261.477 19.428 263.399 20.0788 265.191C20.7296 266.982 21.8055 268.588 23.2141 269.872C23.2141 269.872 29.8758 276.111 37.4276 271.996C40.2056 270.443 42.3301 267.94 43.4108 264.946C43.8307 263.806 44.1262 262.625 44.292 261.421C44.9 257.324 45.8958 245.56 45.8958 245.56C45.8958 245.56 31.7439 248.274 27.8844 249.675C23.9102 251.156 20.0683 254.821 19.4779 259.588ZM36.9782 255.271C38.1051 256.325 38.8941 257.689 39.2454 259.191C39.5966 260.694 39.4943 262.266 38.9515 263.711C38.4086 265.155 37.4496 266.406 36.1957 267.305C34.9418 268.204 33.4494 268.71 31.9073 268.761C30.3653 268.812 28.8429 268.404 27.5328 267.589C26.2227 266.774 25.1837 265.589 24.5474 264.183C23.911 262.778 23.7059 261.215 23.958 259.693C24.21 258.171 24.9079 256.757 25.9634 255.632C26.6595 254.879 27.4981 254.273 28.4306 253.847C29.363 253.421 30.3707 253.184 31.3953 253.15C32.4199 253.117 33.441 253.287 34.3993 253.651C35.3576 254.015 36.2342 254.565 36.9782 255.271Z" fill="#455A64"/>
<path d="M26.2863 266.709C27.4621 267.809 28.9498 268.518 30.5449 268.739C32.14 268.96 33.7644 268.682 35.195 267.942C33.8468 268.5 32.3531 268.601 30.942 268.23C29.531 267.859 28.2803 267.036 27.3811 265.887C26.4819 264.738 25.9837 263.326 25.9626 261.867C25.9414 260.408 26.3986 258.983 27.2642 257.808C28.1297 256.634 29.3561 255.775 30.7558 255.363C32.1555 254.951 33.6516 255.009 35.0154 255.527C36.3791 256.046 37.5356 256.997 38.3079 258.235C39.0803 259.473 39.4261 260.929 39.2925 262.382C39.5295 261.052 39.4166 259.682 38.9649 258.408C38.5131 257.134 37.738 256 36.7156 255.116C35.6933 254.232 34.4586 253.629 33.1329 253.365C31.8072 253.102 30.4358 253.188 29.1533 253.615C27.8708 254.042 26.7212 254.794 25.8172 255.799C24.9133 256.804 24.286 258.026 23.9969 259.347C23.7078 260.667 23.7668 262.04 24.1682 263.33C24.5695 264.621 25.2994 265.785 26.2863 266.709Z" fill="#263238"/>
<path d="M289.974 38.112C290.158 36.7727 290.013 35.4089 289.552 34.1379C289.092 32.8669 288.329 31.7269 287.331 30.8158C287.331 30.8158 282.599 26.4099 277.232 29.309C275.268 30.4088 273.762 32.1746 272.985 34.2877C272.681 35.0876 272.462 35.9176 272.333 36.7638C271.901 39.6717 271.188 48.0429 271.188 48.0429L272.016 48.8184C274.457 48.3337 281.709 45.9457 283.982 45.1262C286.828 44.0952 289.56 41.4957 289.974 38.112ZM278.378 41.954C277.579 41.2064 277.019 40.2387 276.77 39.1732C276.521 38.1077 276.593 36.9922 276.978 35.9677C277.362 34.9432 278.042 34.0558 278.931 33.4175C279.82 32.7793 280.878 32.419 281.972 32.382C283.065 32.3451 284.145 32.6332 285.075 33.21C286.005 33.7868 286.743 34.6263 287.196 35.6225C287.649 36.6187 287.796 37.7267 287.619 38.8066C287.443 39.8866 286.95 40.8898 286.203 41.6896C285.199 42.7608 283.812 43.3902 282.345 43.4397C280.878 43.4893 279.451 42.9549 278.378 41.954Z" fill="#263238"/>
<path d="M290.775 38.9228C290.958 37.5835 290.814 36.2197 290.353 34.9487C289.893 33.6778 289.13 32.5377 288.132 31.6266C288.132 31.6266 283.4 27.2207 278.033 30.1198C276.064 31.2215 274.556 32.9949 273.786 35.1161C273.481 35.916 273.263 36.746 273.134 37.5922C272.702 40.5001 271.988 48.8714 271.988 48.8714C271.988 48.8714 282.043 46.9416 284.783 45.9546C287.524 44.9677 290.352 42.3065 290.775 38.9228ZM278.35 41.9893C277.814 41.4956 277.382 40.9002 277.079 40.2376C276.775 39.5751 276.606 38.8588 276.583 38.1304C276.559 37.4021 276.68 36.6763 276.94 35.9953C277.2 35.3144 277.592 34.692 278.095 34.1644C278.843 33.3661 279.812 32.8075 280.877 32.5594C281.943 32.3114 283.059 32.3848 284.083 32.7706C285.107 33.1563 285.994 33.837 286.631 34.7267C287.268 35.6163 287.627 36.6748 287.663 37.7686C287.699 38.8623 287.409 39.942 286.831 40.8713C286.254 41.8006 285.413 42.5378 284.416 42.9895C283.42 43.4412 282.312 43.5873 281.232 43.4093C280.152 43.2313 279.149 42.7371 278.35 41.9893Z" fill="#455A64"/>
<path d="M285.947 33.8736C285.113 33.0908 284.057 32.5857 282.924 32.4279C281.791 32.2701 280.637 32.4673 279.62 32.9924C280.577 32.5964 281.637 32.5245 282.639 32.7878C283.64 33.0511 284.528 33.6351 285.166 34.4505C285.805 35.2659 286.159 36.2679 286.174 37.3033C286.189 38.3387 285.865 39.3507 285.25 40.1844C284.636 41.0182 283.766 41.6279 282.773 41.9205C281.779 42.213 280.718 42.1722 279.75 41.8044C278.782 41.4366 277.961 40.7619 277.412 39.8835C276.864 39.0051 276.618 37.9713 276.712 36.9401C276.545 37.884 276.625 38.8554 276.945 39.759C277.266 40.6626 277.816 41.4674 278.541 42.0946C279.266 42.7218 280.141 43.1498 281.082 43.3368C282.022 43.5237 282.995 43.4632 283.905 43.161C284.815 42.8589 285.63 42.3255 286.272 41.6132C286.914 40.9009 287.36 40.0342 287.565 39.0978C287.771 38.1614 287.731 37.1876 287.447 36.2718C287.163 35.356 286.646 34.5296 285.947 33.8736Z" fill="#263238"/>
<path d="M123.254 209.67H155.937C155.937 209.67 153.047 204.382 144.631 205.176C136.595 205.907 136.19 202.585 132.101 202.18C128.012 201.774 124.62 204.902 123.254 209.67Z" fill="#99E2F7"/>
<path d="M145.723 181.313H194.091C194.091 181.313 189.817 173.532 177.348 174.66C165.452 175.744 164.853 170.836 158.843 170.254C152.834 169.673 147.741 174.264 145.723 181.313Z" fill="#99E2F7"/>
<path d="M82.9922 109.012H114.635C114.635 109.012 111.833 103.927 103.691 104.668C95.9103 105.373 95.5138 102.156 91.5661 101.769C87.6184 101.381 84.314 104.403 82.9922 109.012Z" fill="#99E2F7"/>
</svg>
