<svg width="467" height="410" viewBox="0 0 467 410" fill="none" xmlns="http://www.w3.org/2000/svg">
<line x1="442.5" y1="371.001" x2="442.5" y2="47.9997" stroke="#00B7EA" stroke-dasharray="2 2"/>
<path d="M46.8018 127.775C27.2826 154.015 14.7318 192.571 24.2501 224.864C40.5141 280.055 109.531 284.213 156.8 290.6C189.378 295.007 221.769 320.615 249.631 336.508C286.763 357.698 346.497 391.13 389.323 369.42C424.822 351.435 443.908 307.929 454.8 271.836C471.868 215.32 473.514 147.146 436.357 97.908C385.783 31.0698 297.309 42.2095 223.799 53.6462C174.599 61.3079 126.773 68.7715 83.0306 94.8508C68.908 103.338 56.597 114.526 46.8018 127.775Z" fill="#00B7EA"/>
<path opacity="0.4" d="M46.8018 127.775C27.2826 154.015 14.7318 192.571 24.2501 224.864C40.5141 280.055 109.531 284.213 156.8 290.6C189.378 295.007 221.769 320.615 249.631 336.508C286.763 357.698 346.497 391.13 389.323 369.42C424.822 351.435 443.908 307.929 454.8 271.836C471.868 215.32 473.514 147.146 436.357 97.908C385.783 31.0698 297.309 42.2095 223.799 53.6462C174.599 61.3079 126.773 68.7715 83.0306 94.8508C68.908 103.338 56.597 114.526 46.8018 127.775Z" fill="#00B7EA"/>
<rect opacity="0.3" width="130" height="20" transform="matrix(1 0 0 -1 0 207)" fill="#121220"/>
<rect opacity="0.3" width="130" height="6" transform="matrix(1 0 0 -1 0 180)" fill="#00B7EA" fill-opacity="0.8"/>
<rect opacity="0.3" width="130" height="20" transform="matrix(1 0 0 -1 333 315)" fill="#121220"/>
<rect opacity="0.3" width="130" height="6" transform="matrix(1 0 0 -1 333 287)" fill="#00B7EA" fill-opacity="0.8"/>
<rect x="72.5" y="8.49951" width="177" height="202" stroke="black" stroke-opacity="0.17"/>
<rect x="247.5" y="197.5" width="177" height="202" stroke="black" stroke-opacity="0.17"/>
<line x1="262.633" y1="410.001" x2="262.633" y2="-9.15527e-05" stroke="#00B7EA" stroke-dasharray="2 2"/>
<line x1="64.75" y1="350" x2="64.75" y2="26.999" stroke="#00B7EA" stroke-dasharray="2 2"/>
<path d="M270.784 47.6558H46.5664V332.065H270.784V47.6558Z" fill="white" stroke="#263238" stroke-width="0.75" stroke-linecap="round" stroke-linejoin="round"/>
<path d="M270.784 47.6558H46.5664V64.6252H270.784V47.6558Z" fill="#263238" stroke="#263238" stroke-width="0.75" stroke-linecap="round" stroke-linejoin="round"/>
<path d="M90.8529 246.017H52.9531V326.458H90.8529V246.017Z" fill="#00B7EA"/>
<path opacity="0.6" d="M90.8529 246.017H52.9531V326.458H90.8529V246.017Z" fill="white"/>
<path d="M132.181 246.017H94.2812V326.458H132.181V246.017Z" fill="#00B7EA"/>
<path opacity="0.6" d="M132.181 246.017H94.2812V326.458H132.181V246.017Z" fill="white"/>
<path d="M176.097 246.017H138.197V326.458H176.097V246.017Z" fill="#00B7EA"/>
<path opacity="0.6" d="M176.097 246.017H138.197V326.458H176.097V246.017Z" fill="white"/>
<path d="M219.999 246.017H182.1V326.458H219.999V246.017Z" fill="#00B7EA"/>
<path opacity="0.6" d="M219.999 246.017H182.1V326.458H219.999V246.017Z" fill="white"/>
<path d="M264.98 246.017H227.08V326.458H264.98V246.017Z" fill="white" stroke="#263238" stroke-width="0.75" stroke-linecap="round" stroke-linejoin="round"/>
<path d="M264.372 54.3638H52.9648V73.8583H264.372V54.3638Z" fill="#00B7EA"/>
<path opacity="0.6" d="M264.372 54.3638H52.9648V73.8583H264.372V54.3638Z" fill="white"/>
<path d="M261.402 58.1519H56.7656V66.7789H261.402V58.1519Z" fill="white"/>
<path d="M261.389 58.1519H238.219V66.7789H261.389V58.1519Z" fill="#263238" stroke="#263238" stroke-width="0.75" stroke-linecap="round" stroke-linejoin="round"/>
<path d="M147.058 91.3356H103.737C103.294 91.3356 102.869 91.1595 102.556 90.8462C102.242 90.5328 102.066 90.1078 102.066 89.6646C102.066 89.2214 102.242 88.7964 102.556 88.4831C102.869 88.1697 103.294 87.9937 103.737 87.9937H147.058C147.502 87.9937 147.927 88.1697 148.24 88.4831C148.553 88.7964 148.729 89.2214 148.729 89.6646C148.729 90.1078 148.553 90.5328 148.24 90.8462C147.927 91.1595 147.502 91.3356 147.058 91.3356Z" fill="#263238"/>
<path d="M147.06 102.982H103.738C103.508 103.002 103.275 102.974 103.056 102.899C102.837 102.825 102.636 102.706 102.465 102.549C102.295 102.392 102.158 102.202 102.065 101.99C101.972 101.778 101.924 101.549 101.924 101.318C101.924 101.086 101.972 100.857 102.065 100.645C102.158 100.433 102.295 100.243 102.465 100.086C102.636 99.9299 102.837 99.8105 103.056 99.7359C103.275 99.6612 103.508 99.633 103.738 99.6529H147.06C147.476 99.6889 147.864 99.8799 148.147 100.188C148.43 100.496 148.587 100.899 148.587 101.318C148.587 101.736 148.43 102.139 148.147 102.447C147.864 102.756 147.476 102.946 147.06 102.982Z" fill="#263238"/>
<path d="M147.058 114.642H103.737C103.294 114.642 102.869 114.466 102.556 114.153C102.242 113.839 102.066 113.414 102.066 112.971C102.066 112.528 102.242 112.103 102.556 111.79C102.869 111.476 103.294 111.3 103.737 111.3H147.058C147.502 111.3 147.927 111.476 148.24 111.79C148.553 112.103 148.729 112.528 148.729 112.971C148.729 113.414 148.553 113.839 148.24 114.153C147.927 114.466 147.502 114.642 147.058 114.642Z" fill="#263238"/>
<path d="M147.058 126.289H57.1484C56.7316 126.253 56.3435 126.062 56.0608 125.754C55.778 125.446 55.6211 125.043 55.6211 124.624C55.6211 124.206 55.778 123.803 56.0608 123.495C56.3435 123.187 56.7316 122.996 57.1484 122.96H147.058C147.475 122.996 147.863 123.187 148.146 123.495C148.429 123.803 148.585 124.206 148.585 124.624C148.585 125.043 148.429 125.446 148.146 125.754C147.863 126.062 147.475 126.253 147.058 126.289Z" fill="#263238"/>
<path d="M147.059 137.949H57.1495C56.7063 137.949 56.2813 137.773 55.9679 137.46C55.6546 137.146 55.4785 136.721 55.4785 136.278C55.4785 135.835 55.6546 135.41 55.9679 135.097C56.2813 134.783 56.7063 134.607 57.1495 134.607H147.059C147.502 134.607 147.927 134.783 148.241 135.097C148.554 135.41 148.73 135.835 148.73 136.278C148.73 136.721 148.554 137.146 148.241 137.46C147.927 137.773 147.502 137.949 147.059 137.949Z" fill="#263238"/>
<path d="M147.059 149.609H57.1495C56.7063 149.609 56.2813 149.432 55.9679 149.119C55.6546 148.806 55.4785 148.381 55.4785 147.938C55.4785 147.494 55.6546 147.069 55.9679 146.756C56.2813 146.443 56.7063 146.267 57.1495 146.267H147.059C147.502 146.267 147.927 146.443 148.241 146.756C148.554 147.069 148.73 147.494 148.73 147.938C148.73 148.381 148.554 148.806 148.241 149.119C147.927 149.432 147.502 149.609 147.059 149.609Z" fill="#263238"/>
<path d="M147.058 161.256H57.1484C56.7316 161.22 56.3435 161.029 56.0608 160.721C55.778 160.413 55.6211 160.01 55.6211 159.592C55.6211 159.173 55.778 158.77 56.0608 158.462C56.3435 158.154 56.7316 157.963 57.1484 157.927H147.058C147.475 157.963 147.863 158.154 148.146 158.462C148.429 158.77 148.585 159.173 148.585 159.592C148.585 160.01 148.429 160.413 148.146 160.721C147.863 161.029 147.475 161.22 147.058 161.256Z" fill="#263238"/>
<path d="M147.058 171.616H57.1484C56.7316 171.58 56.3435 171.389 56.0608 171.081C55.778 170.773 55.6211 170.369 55.6211 169.951C55.6211 169.533 55.778 169.13 56.0608 168.822C56.3435 168.513 56.7316 168.322 57.1484 168.286H147.058C147.475 168.322 147.863 168.513 148.146 168.822C148.429 169.13 148.585 169.533 148.585 169.951C148.585 170.369 148.429 170.773 148.146 171.081C147.863 171.389 147.475 171.58 147.058 171.616Z" fill="#263238"/>
<path d="M147.059 183.313H57.1495C56.7063 183.313 56.2813 183.137 55.9679 182.823C55.6546 182.51 55.4785 182.085 55.4785 181.642C55.4785 181.198 55.6546 180.773 55.9679 180.46C56.2813 180.147 56.7063 179.971 57.1495 179.971H147.059C147.502 179.971 147.927 180.147 148.241 180.46C148.554 180.773 148.73 181.198 148.73 181.642C148.73 182.085 148.554 182.51 148.241 182.823C147.927 183.137 147.502 183.313 147.059 183.313Z" fill="#263238"/>
<path d="M147.058 194.923H57.1484C56.7316 194.887 56.3435 194.696 56.0608 194.387C55.778 194.079 55.6211 193.676 55.6211 193.258C55.6211 192.839 55.778 192.436 56.0608 192.128C56.3435 191.82 56.7316 191.629 57.1484 191.593H147.058C147.475 191.629 147.863 191.82 148.146 192.128C148.429 192.436 148.585 192.839 148.585 193.258C148.585 193.676 148.429 194.079 148.146 194.387C147.863 194.696 147.475 194.887 147.058 194.923Z" fill="#263238"/>
<path d="M147.059 206.582H57.1495C56.7063 206.582 56.2813 206.406 55.9679 206.092C55.6546 205.779 55.4785 205.354 55.4785 204.911C55.4785 204.468 55.6546 204.043 55.9679 203.729C56.2813 203.416 56.7063 203.24 57.1495 203.24H147.059C147.502 203.24 147.927 203.416 148.241 203.729C148.554 204.043 148.73 204.468 148.73 204.911C148.73 205.354 148.554 205.779 148.241 206.092C147.927 206.406 147.502 206.582 147.059 206.582Z" fill="#263238"/>
<path d="M147.058 218.229H57.1484C56.7316 218.193 56.3435 218.003 56.0608 217.694C55.778 217.386 55.6211 216.983 55.6211 216.565C55.6211 216.146 55.778 215.743 56.0608 215.435C56.3435 215.127 56.7316 214.936 57.1484 214.9H147.058C147.475 214.936 147.863 215.127 148.146 215.435C148.429 215.743 148.585 216.146 148.585 216.565C148.585 216.983 148.429 217.386 148.146 217.694C147.863 218.003 147.475 218.193 147.058 218.229Z" fill="#263238"/>
<path d="M147.058 229.889H57.1484C56.7316 229.853 56.3435 229.662 56.0608 229.354C55.778 229.045 55.6211 228.642 55.6211 228.224C55.6211 227.806 55.778 227.403 56.0608 227.094C56.3435 226.786 56.7316 226.595 57.1484 226.559H147.058C147.475 226.595 147.863 226.786 148.146 227.094C148.429 227.403 148.585 227.806 148.585 228.224C148.585 228.642 148.429 229.045 148.146 229.354C147.863 229.662 147.475 229.853 147.058 229.889Z" fill="#263238"/>
<path d="M262.788 91.3356H172.915C172.472 91.3356 172.047 91.1595 171.734 90.8462C171.42 90.5328 171.244 90.1078 171.244 89.6646C171.244 89.2214 171.42 88.7964 171.734 88.4831C172.047 88.1697 172.472 87.9937 172.915 87.9937H262.788C263.231 87.9937 263.656 88.1697 263.969 88.4831C264.283 88.7964 264.459 89.2214 264.459 89.6646C264.459 90.1078 264.283 90.5328 263.969 90.8462C263.656 91.1595 263.231 91.3356 262.788 91.3356Z" fill="#263238"/>
<path d="M262.789 102.982H172.916C172.686 103.002 172.453 102.974 172.234 102.899C172.015 102.825 171.814 102.706 171.643 102.549C171.472 102.392 171.336 102.202 171.243 101.99C171.15 101.778 171.102 101.549 171.102 101.318C171.102 101.086 171.15 100.857 171.243 100.645C171.336 100.433 171.472 100.243 171.643 100.086C171.814 99.9299 172.015 99.8105 172.234 99.7359C172.453 99.6612 172.686 99.633 172.916 99.6529H262.789C263.02 99.633 263.252 99.6612 263.471 99.7359C263.69 99.8105 263.892 99.9299 264.062 100.086C264.233 100.243 264.369 100.433 264.462 100.645C264.555 100.857 264.604 101.086 264.604 101.318C264.604 101.549 264.555 101.778 264.462 101.99C264.369 102.202 264.233 102.392 264.062 102.549C263.892 102.706 263.69 102.825 263.471 102.899C263.252 102.974 263.02 103.002 262.789 102.982Z" fill="#263238"/>
<path d="M262.788 114.642H172.915C172.472 114.642 172.047 114.466 171.734 114.153C171.42 113.839 171.244 113.414 171.244 112.971C171.244 112.528 171.42 112.103 171.734 111.79C172.047 111.476 172.472 111.3 172.915 111.3H262.788C263.231 111.3 263.656 111.476 263.969 111.79C264.283 112.103 264.459 112.528 264.459 112.971C264.459 113.414 264.283 113.839 263.969 114.153C263.656 114.466 263.231 114.642 262.788 114.642Z" fill="#263238"/>
<path d="M262.789 126.29H172.916C172.686 126.31 172.453 126.281 172.234 126.207C172.015 126.132 171.814 126.013 171.643 125.856C171.472 125.7 171.336 125.51 171.243 125.298C171.15 125.086 171.102 124.857 171.102 124.625C171.102 124.394 171.15 124.164 171.243 123.953C171.336 123.741 171.472 123.55 171.643 123.394C171.814 123.237 172.015 123.118 172.234 123.043C172.453 122.969 172.686 122.94 172.916 122.96H262.789C263.02 122.94 263.252 122.969 263.471 123.043C263.69 123.118 263.892 123.237 264.062 123.394C264.233 123.55 264.369 123.741 264.462 123.953C264.555 124.164 264.604 124.394 264.604 124.625C264.604 124.857 264.555 125.086 264.462 125.298C264.369 125.51 264.233 125.7 264.062 125.856C263.892 126.013 263.69 126.132 263.471 126.207C263.252 126.281 263.02 126.31 262.789 126.29Z" fill="#263238"/>
<path d="M262.788 137.949H172.915C172.472 137.949 172.047 137.773 171.734 137.46C171.42 137.146 171.244 136.721 171.244 136.278C171.244 135.835 171.42 135.41 171.734 135.097C172.047 134.783 172.472 134.607 172.915 134.607H262.788C263.231 134.607 263.656 134.783 263.969 135.097C264.283 135.41 264.459 135.835 264.459 136.278C264.459 136.721 264.283 137.146 263.969 137.46C263.656 137.773 263.231 137.949 262.788 137.949Z" fill="#263238"/>
<path d="M262.788 149.609H172.915C172.696 149.609 172.478 149.565 172.276 149.481C172.073 149.397 171.889 149.274 171.734 149.119C171.578 148.964 171.455 148.78 171.371 148.577C171.287 148.374 171.244 148.157 171.244 147.938C171.244 147.718 171.287 147.501 171.371 147.298C171.455 147.095 171.578 146.911 171.734 146.756C171.889 146.601 172.073 146.478 172.276 146.394C172.478 146.31 172.696 146.267 172.915 146.267H262.788C263.007 146.267 263.225 146.31 263.427 146.394C263.63 146.478 263.814 146.601 263.969 146.756C264.124 146.911 264.248 147.095 264.332 147.298C264.415 147.501 264.459 147.718 264.459 147.938C264.459 148.157 264.415 148.374 264.332 148.577C264.248 148.78 264.124 148.964 263.969 149.119C263.814 149.274 263.63 149.397 263.427 149.481C263.225 149.565 263.007 149.609 262.788 149.609Z" fill="#263238"/>
<path d="M262.789 161.256H172.916C172.686 161.276 172.453 161.248 172.234 161.173C172.015 161.098 171.814 160.979 171.643 160.822C171.472 160.666 171.336 160.476 171.243 160.264C171.15 160.052 171.102 159.823 171.102 159.591C171.102 159.36 171.15 159.131 171.243 158.919C171.336 158.707 171.472 158.516 171.643 158.36C171.814 158.203 172.015 158.084 172.234 158.009C172.453 157.935 172.686 157.906 172.916 157.926H262.789C263.02 157.906 263.252 157.935 263.471 158.009C263.69 158.084 263.892 158.203 264.062 158.36C264.233 158.516 264.369 158.707 264.462 158.919C264.555 159.131 264.604 159.36 264.604 159.591C264.604 159.823 264.555 160.052 264.462 160.264C264.369 160.476 264.233 160.666 264.062 160.822C263.892 160.979 263.69 161.098 263.471 161.173C263.252 161.248 263.02 161.276 262.789 161.256Z" fill="#263238"/>
<path d="M264.41 169.091H172.816V232.971H264.41V169.091Z" fill="#00B7EA"/>
<path opacity="0.6" d="M264.41 169.091H172.816V232.971H264.41V169.091Z" fill="white"/>
<path d="M296.417 81.0745H203.066V331.483H296.417V81.0745Z" fill="#00B7EA"/>
<path opacity="0.4" d="M296.417 81.0745H203.066V331.483H296.417V81.0745Z" fill="white"/>
<path d="M434.264 71.7048H210.047V356.114H434.264V71.7048Z" fill="white" stroke="#263238" stroke-width="0.75" stroke-linecap="round" stroke-linejoin="round"/>
<path d="M434.264 71.7048H210.047V88.6743H434.264V71.7048Z" fill="#263238" stroke="#263238" stroke-width="0.75" stroke-linecap="round" stroke-linejoin="round"/>
<path d="M364.307 111.981H285.574V259.161H364.307V111.981Z" fill="#00B7EA"/>
<path opacity="0.6" d="M364.307 111.981H285.574V259.161H364.307V111.981Z" fill="white"/>
<path d="M427.866 270.053H216.459V350.495H427.866V270.053Z" fill="#00B7EA"/>
<path opacity="0.6" d="M427.866 270.053H216.459V350.495H427.866V270.053Z" fill="white"/>
<path d="M427.866 78.4136H216.459V97.9081H427.866V78.4136Z" fill="#00B7EA"/>
<path opacity="0.6" d="M427.866 78.4136H216.459V97.9081H427.866V78.4136Z" fill="white"/>
<path d="M424.896 82.2009H220.26V90.828H424.896V82.2009Z" fill="white"/>
<path d="M424.883 82.2009H401.713V90.828H424.883V82.2009Z" fill="#263238" stroke="#263238" stroke-width="0.75" stroke-linecap="round" stroke-linejoin="round"/>
<path d="M272.344 115.373H218.391C218.16 115.393 217.928 115.364 217.709 115.29C217.489 115.215 217.288 115.096 217.118 114.939C216.947 114.783 216.811 114.592 216.717 114.38C216.624 114.168 216.576 113.939 216.576 113.708C216.576 113.476 216.624 113.247 216.717 113.035C216.811 112.823 216.947 112.633 217.118 112.477C217.288 112.32 217.489 112.201 217.709 112.126C217.928 112.051 218.16 112.023 218.391 112.043H272.344C272.575 112.023 272.807 112.051 273.026 112.126C273.245 112.201 273.447 112.32 273.617 112.477C273.788 112.633 273.924 112.823 274.017 113.035C274.111 113.247 274.159 113.476 274.159 113.708C274.159 113.939 274.111 114.168 274.017 114.38C273.924 114.592 273.788 114.783 273.617 114.939C273.447 115.096 273.245 115.215 273.026 115.29C272.807 115.364 272.575 115.393 272.344 115.373Z" fill="#263238"/>
<path d="M272.343 127.032H218.39C217.947 127.032 217.522 126.856 217.208 126.542C216.895 126.229 216.719 125.804 216.719 125.361C216.719 124.918 216.895 124.493 217.208 124.179C217.522 123.866 217.947 123.69 218.39 123.69H272.343C272.786 123.69 273.211 123.866 273.525 124.179C273.838 124.493 274.014 124.918 274.014 125.361C274.014 125.804 273.838 126.229 273.525 126.542C273.211 126.856 272.786 127.032 272.343 127.032Z" fill="#263238"/>
<path d="M272.344 138.679H218.391C218.16 138.699 217.928 138.671 217.709 138.597C217.489 138.522 217.288 138.403 217.118 138.246C216.947 138.089 216.811 137.899 216.717 137.687C216.624 137.475 216.576 137.246 216.576 137.015C216.576 136.783 216.624 136.554 216.717 136.342C216.811 136.13 216.947 135.94 217.118 135.783C217.288 135.627 217.489 135.508 217.709 135.433C217.928 135.358 218.16 135.33 218.391 135.35H272.344C272.575 135.33 272.807 135.358 273.026 135.433C273.245 135.508 273.447 135.627 273.617 135.783C273.788 135.94 273.924 136.13 274.017 136.342C274.111 136.554 274.159 136.783 274.159 137.015C274.159 137.246 274.111 137.475 274.017 137.687C273.924 137.899 273.788 138.089 273.617 138.246C273.447 138.403 273.245 138.522 273.026 138.597C272.807 138.671 272.575 138.699 272.344 138.679Z" fill="#263238"/>
<path d="M272.343 150.339H218.39C218.17 150.339 217.953 150.296 217.75 150.212C217.548 150.128 217.363 150.005 217.208 149.85C217.053 149.695 216.93 149.51 216.846 149.308C216.762 149.105 216.719 148.888 216.719 148.668C216.719 148.449 216.762 148.232 216.846 148.029C216.93 147.826 217.053 147.642 217.208 147.487C217.363 147.332 217.548 147.208 217.75 147.124C217.953 147.041 218.17 146.997 218.39 146.997H272.343C272.786 146.997 273.211 147.173 273.525 147.487C273.838 147.8 274.014 148.225 274.014 148.668C274.014 149.111 273.838 149.536 273.525 149.85C273.211 150.163 272.786 150.339 272.343 150.339Z" fill="#263238"/>
<path d="M272.344 161.986H218.391C218.16 162.006 217.928 161.978 217.709 161.903C217.489 161.829 217.288 161.709 217.118 161.553C216.947 161.396 216.811 161.206 216.717 160.994C216.624 160.782 216.576 160.553 216.576 160.321C216.576 160.09 216.624 159.861 216.717 159.649C216.811 159.437 216.947 159.247 217.118 159.09C217.288 158.934 217.489 158.814 217.709 158.74C217.928 158.665 218.16 158.637 218.391 158.657H272.344C272.575 158.637 272.807 158.665 273.026 158.74C273.245 158.814 273.447 158.934 273.617 159.09C273.788 159.247 273.924 159.437 274.017 159.649C274.111 159.861 274.159 160.09 274.159 160.321C274.159 160.553 274.111 160.782 274.017 160.994C273.924 161.206 273.788 161.396 273.617 161.553C273.447 161.709 273.245 161.829 273.026 161.903C272.807 161.978 272.575 162.006 272.344 161.986Z" fill="#263238"/>
<path d="M272.344 173.646H218.391C218.16 173.666 217.928 173.637 217.709 173.563C217.489 173.488 217.288 173.369 217.118 173.212C216.947 173.056 216.811 172.866 216.717 172.654C216.624 172.442 216.576 172.213 216.576 171.981C216.576 171.749 216.624 171.52 216.717 171.308C216.811 171.097 216.947 170.906 217.118 170.75C217.288 170.593 217.489 170.474 217.709 170.399C217.928 170.325 218.16 170.296 218.391 170.316H272.344C272.575 170.296 272.807 170.325 273.026 170.399C273.245 170.474 273.447 170.593 273.617 170.75C273.788 170.906 273.924 171.097 274.017 171.308C274.111 171.52 274.159 171.749 274.159 171.981C274.159 172.213 274.111 172.442 274.017 172.654C273.924 172.866 273.788 173.056 273.617 173.212C273.447 173.369 273.245 173.488 273.026 173.563C272.807 173.637 272.575 173.666 272.344 173.646Z" fill="#263238"/>
<path d="M272.343 185.305H218.39C218.17 185.305 217.953 185.262 217.75 185.178C217.548 185.094 217.363 184.971 217.208 184.816C217.053 184.66 216.93 184.476 216.846 184.274C216.762 184.071 216.719 183.854 216.719 183.634C216.719 183.415 216.762 183.197 216.846 182.995C216.93 182.792 217.053 182.608 217.208 182.453C217.363 182.297 217.548 182.174 217.75 182.09C217.953 182.006 218.17 181.963 218.39 181.963H272.343C272.786 181.963 273.211 182.139 273.525 182.453C273.838 182.766 274.014 183.191 274.014 183.634C274.014 184.077 273.838 184.502 273.525 184.816C273.211 185.129 272.786 185.305 272.343 185.305Z" fill="#263238"/>
<path d="M272.343 195.69H218.39C217.947 195.69 217.522 195.514 217.208 195.2C216.895 194.887 216.719 194.462 216.719 194.019C216.719 193.575 216.895 193.15 217.208 192.837C217.522 192.524 217.947 192.348 218.39 192.348H272.343C272.786 192.348 273.211 192.524 273.525 192.837C273.838 193.15 274.014 193.575 274.014 194.019C274.014 194.462 273.838 194.887 273.525 195.2C273.211 195.514 272.786 195.69 272.343 195.69Z" fill="#263238"/>
<path d="M272.344 207.312H218.391C218.16 207.332 217.928 207.304 217.709 207.229C217.489 207.154 217.288 207.035 217.118 206.879C216.947 206.722 216.811 206.532 216.717 206.32C216.624 206.108 216.576 205.879 216.576 205.647C216.576 205.416 216.624 205.187 216.717 204.975C216.811 204.763 216.947 204.573 217.118 204.416C217.288 204.259 217.489 204.14 217.709 204.065C217.928 203.991 218.16 203.963 218.391 203.983H272.344C272.575 203.963 272.807 203.991 273.026 204.065C273.245 204.14 273.447 204.259 273.617 204.416C273.788 204.573 273.924 204.763 274.017 204.975C274.111 205.187 274.159 205.416 274.159 205.647C274.159 205.879 274.111 206.108 274.017 206.32C273.924 206.532 273.788 206.722 273.617 206.879C273.447 207.035 273.245 207.154 273.026 207.229C272.807 207.304 272.575 207.332 272.344 207.312Z" fill="#263238"/>
<path d="M272.343 218.972H218.39C217.947 218.972 217.522 218.796 217.208 218.483C216.895 218.169 216.719 217.744 216.719 217.301C216.719 216.858 216.895 216.433 217.208 216.12C217.522 215.806 217.947 215.63 218.39 215.63H272.343C272.786 215.63 273.211 215.806 273.525 216.12C273.838 216.433 274.014 216.858 274.014 217.301C274.014 217.744 273.838 218.169 273.525 218.483C273.211 218.796 272.786 218.972 272.343 218.972Z" fill="#263238"/>
<path d="M272.344 230.619H218.391C218.16 230.639 217.928 230.611 217.709 230.536C217.489 230.461 217.288 230.342 217.118 230.185C216.947 230.029 216.811 229.839 216.717 229.627C216.624 229.415 216.576 229.186 216.576 228.954C216.576 228.723 216.624 228.494 216.717 228.282C216.811 228.07 216.947 227.879 217.118 227.723C217.288 227.566 217.489 227.447 217.709 227.372C217.928 227.298 218.16 227.269 218.391 227.289H272.344C272.575 227.269 272.807 227.298 273.026 227.372C273.245 227.447 273.447 227.566 273.617 227.723C273.788 227.879 273.924 228.07 274.017 228.282C274.111 228.494 274.159 228.723 274.159 228.954C274.159 229.186 274.111 229.415 274.017 229.627C273.924 229.839 273.788 230.029 273.617 230.185C273.447 230.342 273.245 230.461 273.026 230.536C272.807 230.611 272.575 230.639 272.344 230.619Z" fill="#263238"/>
<path d="M272.343 242.279H218.39C217.947 242.279 217.522 242.103 217.208 241.789C216.895 241.476 216.719 241.051 216.719 240.608C216.719 240.165 216.895 239.74 217.208 239.426C217.522 239.113 217.947 238.937 218.39 238.937H272.343C272.786 238.937 273.211 239.113 273.525 239.426C273.838 239.74 274.014 240.165 274.014 240.608C274.014 241.051 273.838 241.476 273.525 241.789C273.211 242.103 272.786 242.279 272.343 242.279Z" fill="#263238"/>
<path d="M272.344 253.926H218.391C218.16 253.945 217.928 253.917 217.709 253.843C217.489 253.768 217.288 253.649 217.118 253.492C216.947 253.336 216.811 253.145 216.717 252.933C216.624 252.721 216.576 252.492 216.576 252.261C216.576 252.029 216.624 251.8 216.717 251.588C216.811 251.376 216.947 251.186 217.118 251.03C217.288 250.873 217.489 250.754 217.709 250.679C217.928 250.604 218.16 250.576 218.391 250.596H272.344C272.575 250.576 272.807 250.604 273.026 250.679C273.245 250.754 273.447 250.873 273.617 251.03C273.788 251.186 273.924 251.376 274.017 251.588C274.111 251.8 274.159 252.029 274.159 252.261C274.159 252.492 274.111 252.721 274.017 252.933C273.924 253.145 273.788 253.336 273.617 253.492C273.447 253.649 273.245 253.768 273.026 253.843C272.807 253.917 272.575 253.945 272.344 253.926Z" fill="#263238"/>
<path d="M272.344 265.585H218.391C218.16 265.605 217.928 265.577 217.709 265.502C217.489 265.428 217.288 265.308 217.118 265.152C216.947 264.995 216.811 264.805 216.717 264.593C216.624 264.381 216.576 264.152 216.576 263.92C216.576 263.689 216.624 263.46 216.717 263.248C216.811 263.036 216.947 262.846 217.118 262.689C217.288 262.533 217.489 262.413 217.709 262.339C217.928 262.264 218.16 262.236 218.391 262.256H272.344C272.575 262.236 272.807 262.264 273.026 262.339C273.245 262.413 273.447 262.533 273.617 262.689C273.788 262.846 273.924 263.036 274.017 263.248C274.111 263.46 274.159 263.689 274.159 263.92C274.159 264.152 274.111 264.381 274.017 264.593C273.924 264.805 273.788 264.995 273.617 265.152C273.447 265.308 273.245 265.428 273.026 265.502C272.807 265.577 272.575 265.605 272.344 265.585Z" fill="#263238"/>
<path d="M427.458 115.373H373.567C373.336 115.393 373.104 115.364 372.884 115.29C372.665 115.215 372.464 115.096 372.293 114.939C372.123 114.783 371.986 114.592 371.893 114.38C371.8 114.168 371.752 113.939 371.752 113.708C371.752 113.476 371.8 113.247 371.893 113.035C371.986 112.823 372.123 112.633 372.293 112.477C372.464 112.32 372.665 112.201 372.884 112.126C373.104 112.051 373.336 112.023 373.567 112.043H427.52C427.751 112.023 427.983 112.051 428.202 112.126C428.421 112.201 428.623 112.32 428.793 112.477C428.964 112.633 429.1 112.823 429.193 113.035C429.286 113.247 429.335 113.476 429.335 113.708C429.335 113.939 429.286 114.168 429.193 114.38C429.1 114.592 428.964 114.783 428.793 114.939C428.623 115.096 428.421 115.215 428.202 115.29C427.983 115.364 427.751 115.393 427.52 115.373H427.458Z" fill="#263238"/>
<path d="M427.457 127.032H373.565C373.346 127.032 373.129 126.989 372.926 126.905C372.723 126.821 372.539 126.698 372.384 126.542C372.229 126.387 372.106 126.203 372.022 126C371.938 125.798 371.895 125.58 371.895 125.361C371.895 125.141 371.938 124.924 372.022 124.721C372.106 124.519 372.229 124.335 372.384 124.179C372.539 124.024 372.723 123.901 372.926 123.817C373.129 123.733 373.346 123.69 373.565 123.69H427.519C427.962 123.69 428.387 123.866 428.7 124.179C429.014 124.493 429.19 124.918 429.19 125.361C429.19 125.804 429.014 126.229 428.7 126.542C428.387 126.856 427.962 127.032 427.519 127.032H427.457Z" fill="#263238"/>
<path d="M427.458 138.679H373.567C373.336 138.699 373.104 138.671 372.884 138.597C372.665 138.522 372.464 138.403 372.293 138.246C372.123 138.089 371.986 137.899 371.893 137.687C371.8 137.475 371.752 137.246 371.752 137.015C371.752 136.783 371.8 136.554 371.893 136.342C371.986 136.13 372.123 135.94 372.293 135.783C372.464 135.627 372.665 135.508 372.884 135.433C373.104 135.358 373.336 135.33 373.567 135.35H427.52C427.751 135.33 427.983 135.358 428.202 135.433C428.421 135.508 428.623 135.627 428.793 135.783C428.964 135.94 429.1 136.13 429.193 136.342C429.286 136.554 429.335 136.783 429.335 137.015C429.335 137.246 429.286 137.475 429.193 137.687C429.1 137.899 428.964 138.089 428.793 138.246C428.623 138.403 428.421 138.522 428.202 138.597C427.983 138.671 427.751 138.699 427.52 138.679H427.458Z" fill="#263238"/>
<path d="M427.457 150.339H373.565C373.346 150.339 373.129 150.296 372.926 150.212C372.723 150.128 372.539 150.005 372.384 149.85C372.229 149.695 372.106 149.51 372.022 149.308C371.938 149.105 371.895 148.888 371.895 148.668C371.895 148.449 371.938 148.232 372.022 148.029C372.106 147.826 372.229 147.642 372.384 147.487C372.539 147.332 372.723 147.208 372.926 147.124C373.129 147.041 373.346 146.997 373.565 146.997H427.519C427.962 146.997 428.387 147.173 428.7 147.487C429.014 147.8 429.19 148.225 429.19 148.668C429.19 149.111 429.014 149.536 428.7 149.85C428.387 150.163 427.962 150.339 427.519 150.339H427.457Z" fill="#263238"/>
<path d="M427.458 161.986H373.567C373.336 162.006 373.104 161.978 372.884 161.903C372.665 161.829 372.464 161.709 372.293 161.553C372.123 161.396 371.986 161.206 371.893 160.994C371.8 160.782 371.752 160.553 371.752 160.321C371.752 160.09 371.8 159.861 371.893 159.649C371.986 159.437 372.123 159.247 372.293 159.09C372.464 158.934 372.665 158.814 372.884 158.74C373.104 158.665 373.336 158.637 373.567 158.657H427.52C427.751 158.637 427.983 158.665 428.202 158.74C428.421 158.814 428.623 158.934 428.793 159.09C428.964 159.247 429.1 159.437 429.193 159.649C429.286 159.861 429.335 160.09 429.335 160.321C429.335 160.553 429.286 160.782 429.193 160.994C429.1 161.206 428.964 161.396 428.793 161.553C428.623 161.709 428.421 161.829 428.202 161.903C427.983 161.978 427.751 162.006 427.52 161.986H427.458Z" fill="#263238"/>
<path d="M427.458 173.646H373.567C373.336 173.666 373.104 173.637 372.884 173.563C372.665 173.488 372.464 173.369 372.293 173.212C372.123 173.056 371.986 172.866 371.893 172.654C371.8 172.442 371.752 172.213 371.752 171.981C371.752 171.749 371.8 171.52 371.893 171.308C371.986 171.097 372.123 170.906 372.293 170.75C372.464 170.593 372.665 170.474 372.884 170.399C373.104 170.325 373.336 170.296 373.567 170.316H427.52C427.751 170.296 427.983 170.325 428.202 170.399C428.421 170.474 428.623 170.593 428.793 170.75C428.964 170.906 429.1 171.097 429.193 171.308C429.286 171.52 429.335 171.749 429.335 171.981C429.335 172.213 429.286 172.442 429.193 172.654C429.1 172.866 428.964 173.056 428.793 173.212C428.623 173.369 428.421 173.488 428.202 173.563C427.983 173.637 427.751 173.666 427.52 173.646H427.458Z" fill="#263238"/>
<path d="M427.457 185.305H373.565C373.346 185.305 373.129 185.262 372.926 185.178C372.723 185.094 372.539 184.971 372.384 184.816C372.229 184.66 372.106 184.476 372.022 184.274C371.938 184.071 371.895 183.854 371.895 183.634C371.895 183.415 371.938 183.197 372.022 182.995C372.106 182.792 372.229 182.608 372.384 182.453C372.539 182.297 372.723 182.174 372.926 182.09C373.129 182.006 373.346 181.963 373.565 181.963H427.519C427.962 181.963 428.387 182.139 428.7 182.453C429.014 182.766 429.19 183.191 429.19 183.634C429.19 184.077 429.014 184.502 428.7 184.816C428.387 185.129 427.962 185.305 427.519 185.305H427.457Z" fill="#263238"/>
<path d="M427.903 193.128H372.217V257.008H427.903V193.128Z" fill="#00B7EA"/>
<path opacity="0.6" d="M427.903 193.128H372.217V257.008H427.903V193.128Z" fill="white"/>
<path d="M306.16 294.71C304.689 294.159 303.495 293.047 302.843 291.617C302.191 290.188 302.133 288.558 302.682 287.085L319.392 242.415C319.664 241.684 320.078 241.013 320.609 240.441C321.141 239.87 321.779 239.409 322.489 239.084C323.199 238.759 323.966 238.577 324.746 238.549C325.526 238.521 326.303 238.646 327.035 238.919C327.766 239.191 328.437 239.604 329.009 240.136C329.58 240.667 330.041 241.306 330.366 242.016C330.691 242.726 330.873 243.492 330.901 244.272C330.929 245.052 330.804 245.83 330.532 246.562L313.822 291.232C313.55 291.965 313.135 292.637 312.602 293.209C312.068 293.781 311.427 294.242 310.715 294.566C310.003 294.889 309.234 295.068 308.452 295.093C307.67 295.118 306.892 294.987 306.16 294.71Z" fill="white" stroke="#263238" stroke-width="0.75" stroke-linecap="round" stroke-linejoin="round"/>
<path d="M325.394 250.46L316.012 275.116" stroke="#263238" stroke-width="0.75" stroke-linecap="round" stroke-linejoin="round"/>
<path d="M280.737 362.786C279.44 362.303 278.252 361.569 277.239 360.626C276.226 359.683 275.409 358.55 274.834 357.291C274.26 356.033 273.939 354.673 273.889 353.29C273.84 351.908 274.064 350.529 274.548 349.232L298.399 285.451C299.384 282.834 301.369 280.714 303.916 279.559C306.464 278.404 309.366 278.309 311.984 279.294C314.601 280.279 316.721 282.263 317.876 284.811C319.031 287.358 319.126 290.26 318.141 292.878L294.24 356.597C293.264 359.204 291.295 361.317 288.765 362.477C286.235 363.637 283.349 363.748 280.737 362.786Z" fill="#263238" stroke="#263238" stroke-width="0.75" stroke-linecap="round" stroke-linejoin="round"/>
<path d="M369.272 127.837C357.381 123.39 344.438 122.57 332.081 125.479C319.723 128.388 308.505 134.896 299.847 144.18C291.188 153.465 285.476 165.108 283.435 177.638C281.394 190.169 283.114 203.023 288.377 214.575C293.641 226.128 302.213 235.86 313.008 242.542C323.803 249.223 336.337 252.553 349.025 252.111C361.713 251.669 373.984 247.474 384.288 240.057C394.592 232.641 402.465 222.335 406.912 210.444C412.872 194.498 412.255 176.838 405.196 161.347C398.138 145.856 385.216 133.803 369.272 127.837ZM328.191 237.675C318.36 233.996 309.841 227.485 303.71 218.965C297.579 210.444 294.112 200.297 293.748 189.807C293.384 179.316 296.139 168.953 301.664 160.029C307.19 151.104 315.237 144.018 324.79 139.666C334.342 135.315 344.97 133.894 355.33 135.583C365.69 137.272 375.317 141.995 382.993 149.154C390.669 156.314 396.049 165.589 398.454 175.807C400.859 186.025 400.18 196.726 396.503 206.558C391.568 219.741 381.6 230.425 368.79 236.261C355.98 242.096 341.377 242.604 328.191 237.675Z" fill="#263238" stroke="#263238" stroke-width="0.75" stroke-linecap="round" stroke-linejoin="round"/>
<path d="M303.746 168.459C306.322 162.781 309.997 157.669 314.561 153.42C319.124 149.171 324.485 145.869 330.333 143.705" stroke="#263238" stroke-width="0.75" stroke-linecap="round" stroke-linejoin="round"/>
<path d="M299.5 188.115C299.487 183.301 300.214 178.513 301.654 173.918" stroke="#263238" stroke-width="0.75" stroke-linecap="round" stroke-linejoin="round"/>
<path d="M285.936 201.211C282.74 186.489 284.987 171.108 292.262 157.917C299.537 144.726 311.347 134.619 325.503 129.468C339.659 124.316 355.203 124.47 369.254 129.901C383.305 135.332 394.912 145.671 401.925 159.003" stroke="white" stroke-miterlimit="10"/>
<path d="M408.632 180.54C410.446 195.372 406.868 210.362 398.549 222.775C390.231 235.188 377.727 244.197 363.319 248.158C348.91 252.118 333.559 250.767 320.064 244.35C306.569 237.934 295.831 226.879 289.809 213.204" stroke="white" stroke-miterlimit="10"/>
<path d="M404.424 164.388C406.04 168.326 407.247 172.419 408.026 176.604" stroke="white" stroke-miterlimit="10"/>
</svg>
